<svg xmlns="http://www.w3.org/2000/svg" width="116.25mm" height="90.64mm" viewBox="0 0 329.53 256.93">
  <defs>
    <style>
      .a, .c {
        fill: #fff;
      }

      .a {
        stroke: #1d1d1b;
        opacity: 0;
      }

      .a, .h, .i {
        stroke-miterlimit: 10;
      }

      .b, .i {
        fill: #1d1d1b;
      }

      .d, .e, .h {
        fill: none;
      }

      .d, .e {
        stroke: #141414;
        stroke-linecap: round;
        stroke-linejoin: round;
      }

      .d {
        stroke-width: 0.75px;
      }

      .e {
        stroke-width: 0.25px;
      }

      .f {
        fill: #e9477b;
        opacity: 0.27;
      }

      .g {
        fill: #010101;
      }

      .h, .i {
        stroke: #fff;
        stroke-width: 0.5px;
      }
    </style>
  </defs>
  <g>
    <g>
      <rect class="a" x="22.23" y="174.82" width="66.15" height="27.58"/>
      <rect class="a" x="22.02" y="130.61" width="18.71" height="26.6"/>
      <rect class="a" x="40.6" y="130.55" width="47.42" height="44.27"/>
      <rect class="a" x="21.74" y="96.36" width="66.03" height="34.18"/>
      <rect class="a" x="21.61" y="58.85" width="18.73" height="37.35"/>
      <rect class="a" x="40.25" y="58.88" width="23.37" height="37.35"/>
      <rect class="a" x="63.62" y="58.82" width="24.15" height="37.38"/>
      <rect class="a" x="69.91" y="15.13" width="17.5" height="23.49"/>
      <rect class="a" x="56.05" y="4.55" width="31.35" height="10.58"/>
      <rect class="a" x="35.73" y="4.68" width="20.31" height="34.09"/>
    </g>
    <g>
      <g>
        <path class="b" d="M176.93,67.15h-1.74v-.67h4.24v.67h-1.75v5.4h-.75Z"/>
        <path class="b" d="M179.92,68.19l.9,2.58c.09.28.2.63.26.89h0c.08-.26.16-.6.27-.91l.81-2.56H183l-1.12,3.11A6.86,6.86,0,0,1,180.44,74a2,2,0,0,1-.92.51l-.19-.67a2,2,0,0,0,.66-.38,2.51,2.51,0,0,0,.63-.89.67.67,0,0,0,.06-.19.92.92,0,0,0-.05-.2l-1.53-4Z"/>
        <path class="b" d="M185.87,72.55l-.06-.55h0a1.53,1.53,0,0,1-1.26.65,1.2,1.2,0,0,1-1.26-1.25c0-1.06.88-1.63,2.47-1.62v-.09a.88.88,0,0,0-.93-1,1.93,1.93,0,0,0-1.07.32l-.17-.52a2.39,2.39,0,0,1,1.35-.39c1.26,0,1.56.91,1.56,1.78V71.5a6.68,6.68,0,0,0,.07,1Zm-.11-2.23c-.82,0-1.74.14-1.74,1a.68.68,0,0,0,.7.75,1,1,0,0,0,1-.73,1.09,1.09,0,0,0,0-.25Z"/>
        <path class="b" d="M190.83,68.19v4.36h-.75V68.81h-1.41V70c0,1.22-.11,2-.64,2.41a1.19,1.19,0,0,1-.82.27l-.07-.62a.91.91,0,0,0,.4-.18c.39-.3.43-.91.43-1.88V68.19Z"/>
        <path class="b" d="M192.47,70.51A1.35,1.35,0,0,0,193.88,72,2.53,2.53,0,0,0,195,71.8l.12.57a3.24,3.24,0,0,1-1.37.27,2,2,0,0,1-2-2.2c0-1.31.73-2.35,1.93-2.35s1.7,1.25,1.7,2.06c0,.16,0,.28,0,.36Zm2.19-.56c0-.51-.2-1.29-1-1.29s-1.09.74-1.15,1.29Z"/>
        <path class="b" d="M199.05,68.19v.63h-1.28v3.73H197V68.82h-1.28v-.63Z"/>
        <path class="b" d="M200.43,68.19v1.49a3,3,0,0,1,.67-.06c.89,0,1.78.39,1.78,1.46a1.24,1.24,0,0,1-.43,1,2.51,2.51,0,0,1-1.66.5,8.88,8.88,0,0,1-1.1-.06V68.19Zm0,3.81a3.55,3.55,0,0,0,.52,0c.57,0,1.19-.26,1.19-.93s-.6-.92-1.16-.92a2.87,2.87,0,0,0-.55,0Zm3.71-3.81v4.36h-.74V68.19Z"/>
        <path class="b" d="M180.74,94.45c0,2.09-1.2,3.2-2.66,3.2s-2.58-1.25-2.58-3.08,1.13-3.19,2.66-3.19S180.74,92.65,180.74,94.45Zm-4.45.1c0,1.3.66,2.46,1.83,2.46S180,95.86,180,94.49c0-1.21-.59-2.47-1.82-2.47S176.29,93.22,176.29,94.55Z"/>
        <path class="b" d="M184.56,93.19v.63h-1.28v3.73h-.74V93.82h-1.29v-.63Z"/>
        <path class="b" d="M188.15,93.19V97h.42l0,2h-.59l0-1.39h-2.85l0,1.39h-.59l0-2h.35a3.41,3.41,0,0,0,.4-.89,5.74,5.74,0,0,0,.24-1.73V93.19Zm-2.08,1.32a6,6,0,0,1-.22,1.63,3.83,3.83,0,0,1-.33.8h1.9V93.79h-1.35Z"/>
        <path class="b" d="M189.85,95.51A1.35,1.35,0,0,0,191.26,97a2.53,2.53,0,0,0,1.14-.23l.12.57a3.22,3.22,0,0,1-1.36.27,2,2,0,0,1-2-2.2c0-1.31.73-2.35,1.93-2.35,1.35,0,1.7,1.25,1.7,2.06a2.93,2.93,0,0,1,0,.36ZM192,95c0-.51-.2-1.29-1-1.29s-1.09.74-1.14,1.29Z"/>
        <path class="b" d="M196.82,93.19v4.36h-.74V93.81h-1.41V95c0,1.22-.11,2-.65,2.41a1.15,1.15,0,0,1-.82.27l-.07-.62a1,1,0,0,0,.41-.18c.38-.3.42-.91.42-1.88V93.19Z"/>
        <path class="b" d="M202.78,97.39a2.78,2.78,0,0,1-1.19.25,2,2,0,0,1-2-2.23,2.15,2.15,0,0,1,2.21-2.31,2.3,2.3,0,0,1,1,.23l-.17.61a1.63,1.63,0,0,0-.86-.21,1.48,1.48,0,0,0-1.46,1.65A1.46,1.46,0,0,0,201.73,97a2,2,0,0,0,.92-.22Z"/>
        <path class="b" d="M207.32,95.33a2.08,2.08,0,0,1-2,2.32,2,2,0,0,1-2-2.24,2.08,2.08,0,0,1,2-2.32A2,2,0,0,1,207.32,95.33Zm-3.26,0c0,1,.52,1.67,1.25,1.67s1.25-.71,1.25-1.69c0-.74-.35-1.67-1.23-1.67S204.06,94.55,204.06,95.38Z"/>
        <path class="b" d="M209,93.19v3.74h1.89V93.19h.74V97h.43l0,2h-.58l0-1.39h-3.14V93.19Z"/>
        <path class="b" d="M213.63,93.19V95c0,.69,0,1.12,0,1.74h0c.25-.53.39-.83.67-1.34l1.28-2.25h.87v4.36h-.71V95.7c0-.71,0-1.08.05-1.78h0c-.27.56-.45.91-.68,1.35-.4.68-.85,1.51-1.29,2.28h-.86V93.19Z"/>
        <path class="b" d="M219.93,97.55l-.06-.55h0a1.51,1.51,0,0,1-1.26.65,1.2,1.2,0,0,1-1.25-1.25c0-1.06.88-1.63,2.47-1.62v-.09a.88.88,0,0,0-.93-1,2,2,0,0,0-1.08.32l-.17-.52a2.43,2.43,0,0,1,1.36-.39c1.25,0,1.56.91,1.56,1.78V96.5a6.68,6.68,0,0,0,.07,1Zm-.11-2.23c-.82,0-1.75.14-1.75,1a.68.68,0,0,0,.71.75,1,1,0,0,0,1-.73.74.74,0,0,0,0-.25Z"/>
        <path class="b" d="M224.88,93.19v4.36h-.74V93.81h-1.41V95c0,1.22-.11,2-.64,2.41a1.19,1.19,0,0,1-.82.27l-.08-.62a.9.9,0,0,0,.41-.18c.38-.3.43-.91.43-1.88V93.19Z"/>
        <path class="b" d="M226.83,93.19v1.48a3.56,3.56,0,0,1,.68,0c.93,0,1.9.31,1.9,1.47a1.27,1.27,0,0,1-.43,1,2.77,2.77,0,0,1-1.79.5,8.88,8.88,0,0,1-1.1-.06V93.19Zm0,3.81a3.56,3.56,0,0,0,.55,0c.56,0,1.28-.2,1.28-.93s-.74-.92-1.3-.92a3,3,0,0,0-.53,0Z"/>
        <path class="b" d="M231.06,93.19V95h2V93.19h.74v4.36H233v-2h-2v2h-.74V93.19Z"/>
        <path class="b" d="M238.7,95.33a2.08,2.08,0,0,1-2,2.32,2,2,0,0,1-2-2.24,2.08,2.08,0,0,1,2-2.32A2,2,0,0,1,238.7,95.33Zm-3.26,0c0,1,.52,1.67,1.25,1.67s1.25-.71,1.25-1.69c0-.74-.35-1.67-1.24-1.67S235.44,94.55,235.44,95.38Z"/>
        <path class="b" d="M241.38,94.82v.59h-2.1v-.59Z"/>
        <path class="b" d="M242.24,93.24a8.94,8.94,0,0,1,1.31-.09c.69,0,1.82.11,1.82,1.09a1,1,0,0,1-.85,1v0a1.07,1.07,0,0,1,1,1.08c0,1.14-1.36,1.28-2.17,1.28-.45,0-.93,0-1.15,0Zm.7,3.79a5.93,5.93,0,0,0,.61,0c.5,0,1.25-.12,1.25-.75s-.6-.77-1.31-.77h-.55Zm0-2h.56c.56,0,1.12-.17,1.12-.69s-.35-.64-1.1-.64a4.52,4.52,0,0,0-.58,0Z"/>
        <path class="b" d="M250.23,95.33a2.08,2.08,0,0,1-2,2.32,2,2,0,0,1-2-2.24,2.08,2.08,0,0,1,2-2.32A2,2,0,0,1,250.23,95.33Zm-3.27,0c0,1,.52,1.67,1.25,1.67s1.25-.71,1.25-1.69c0-.74-.35-1.67-1.23-1.67S247,94.55,247,95.38Z"/>
        <path class="b" d="M254.1,97.39a2.73,2.73,0,0,1-1.18.25,2,2,0,0,1-2-2.23,2.15,2.15,0,0,1,2.21-2.31,2.32,2.32,0,0,1,1,.23l-.17.61a1.65,1.65,0,0,0-.87-.21,1.48,1.48,0,0,0-1.45,1.65A1.46,1.46,0,0,0,253.06,97a2.06,2.06,0,0,0,.92-.22Z"/>
        <path class="b" d="M258.36,93.19v4.36h-.75V93.82H255.7v3.73H255V93.19Z"/>
        <path class="b" d="M260.26,93.19V95c0,.69,0,1.12,0,1.74h0c.24-.53.39-.83.66-1.34l1.28-2.25h.88v4.36h-.71V95.7c0-.71,0-1.08.05-1.78h0c-.26.56-.44.91-.68,1.35-.39.68-.84,1.51-1.28,2.28h-.86V93.19Z"/>
        <path class="b" d="M267,93.19v.63h-1.28v3.73H265V93.82h-1.29v-.63Z"/>
        <path class="b" d="M269.91,97.55l-.06-.55h0a1.51,1.51,0,0,1-1.26.65,1.21,1.21,0,0,1-1.26-1.25c0-1.06.89-1.63,2.47-1.62v-.09a.88.88,0,0,0-.93-1,2,2,0,0,0-1.07.32l-.17-.52a2.39,2.39,0,0,1,1.35-.39c1.26,0,1.56.91,1.56,1.78V96.5a6.68,6.68,0,0,0,.07,1Zm-.11-2.23c-.81,0-1.74.14-1.74,1a.68.68,0,0,0,.7.75,1,1,0,0,0,1-.73,1.09,1.09,0,0,0,0-.25Z"/>
        <path class="b" d="M274.45,93.19v.63h-1.28v3.73h-.74V93.82h-1.29v-.63Z"/>
        <path class="b" d="M275.41,95.51A1.36,1.36,0,0,0,276.82,97,2.5,2.5,0,0,0,278,96.8l.13.57a3.32,3.32,0,0,1-1.37.27,2,2,0,0,1-2-2.2c0-1.31.73-2.35,1.93-2.35s1.7,1.25,1.7,2.06a2.55,2.55,0,0,1,0,.36ZM277.6,95c0-.51-.19-1.29-1-1.29s-1.09.74-1.15,1.29Z"/>
        <path class="b" d="M282.38,93.19v4.36h-.74V93.81h-1.41V95c0,1.22-.11,2-.65,2.41a1.14,1.14,0,0,1-.81.27l-.08-.62a.9.9,0,0,0,.41-.18c.38-.3.42-.91.42-1.88V93.19Z"/>
        <path class="b" d="M284.33,93.19v1.48a3.56,3.56,0,0,1,.68,0c.92,0,1.9.31,1.9,1.47a1.27,1.27,0,0,1-.43,1,2.77,2.77,0,0,1-1.79.5,8.77,8.77,0,0,1-1.1-.06V93.19Zm0,3.81a3.56,3.56,0,0,0,.55,0c.56,0,1.28-.2,1.28-.93s-.75-.92-1.3-.92a3,3,0,0,0-.53,0Z"/>
        <path class="b" d="M288.56,93.19V95h1.95V93.19h.74v4.36h-.74v-2h-1.95v2h-.74V93.19Z"/>
        <path class="b" d="M296.2,95.33a2.08,2.08,0,0,1-2.05,2.32,2,2,0,0,1-2-2.24,2.08,2.08,0,0,1,2-2.32A2,2,0,0,1,296.2,95.33Zm-3.26,0c0,1,.51,1.67,1.25,1.67s1.25-.71,1.25-1.69c0-.74-.35-1.67-1.24-1.67S292.94,94.55,292.94,95.38Z"/>
        <path class="b" d="M297.83,93.19V95c0,.69,0,1.12,0,1.74h0c.24-.53.39-.83.66-1.34l1.28-2.25h.88v4.36h-.72V95.7c0-.71,0-1.08.05-1.78h0c-.26.56-.44.91-.68,1.35-.39.68-.84,1.51-1.28,2.28h-.86V93.19Zm.49-1.77c0,.38.2.68.54.68s.54-.29.58-.68H300a1,1,0,0,1-1.13,1.11c-.74,0-1-.49-1.07-1.11Z"/>
        <path class="b" d="M303.65,94.61c0-.55,0-1,0-1.42h.67l0,.75h0a1.61,1.61,0,0,1,1.46-.85c1,0,1.75.89,1.75,2.22,0,1.56-.9,2.34-1.87,2.34a1.41,1.41,0,0,1-1.27-.69h0v2.37h-.74Zm.74,1.17a1.65,1.65,0,0,0,0,.32,1.16,1.16,0,0,0,1.12.93c.79,0,1.25-.69,1.25-1.69s-.43-1.62-1.22-1.62A1.41,1.41,0,0,0,304.39,95Z"/>
        <path class="b" d="M310.77,97.55l-.06-.55h0a1.51,1.51,0,0,1-1.25.65,1.2,1.2,0,0,1-1.26-1.25c0-1.06.88-1.63,2.47-1.62v-.09a.88.88,0,0,0-.93-1,2,2,0,0,0-1.08.32l-.17-.52a2.43,2.43,0,0,1,1.36-.39c1.25,0,1.56.91,1.56,1.78V96.5a6.68,6.68,0,0,0,.07,1Zm-.11-2.23c-.82,0-1.75.14-1.75,1a.68.68,0,0,0,.71.75,1,1,0,0,0,1-.73,1.09,1.09,0,0,0,0-.25Z"/>
        <path class="b" d="M315.7,91.71a4.18,4.18,0,0,1-.86.2,2,2,0,0,0-1.46.82,3.12,3.12,0,0,0-.45,1.44h0a1.56,1.56,0,0,1,1.43-1c1,0,1.75.77,1.75,2.15s-.7,2.31-1.9,2.31c-1.45,0-1.92-1.47-1.92-2.92a4,4,0,0,1,.63-2.41,2.44,2.44,0,0,1,1.77-1,5.25,5.25,0,0,0,1-.23Zm-1.47,2.07a1,1,0,0,0-.93.59,2,2,0,0,0-.2.93c0,.72.33,1.75,1.14,1.75s1.13-.84,1.13-1.64S315.11,93.78,314.23,93.78Z"/>
        <path class="b" d="M320.8,95.33a2.08,2.08,0,0,1-2.05,2.32,2,2,0,0,1-2-2.24,2.08,2.08,0,0,1,2-2.32A2,2,0,0,1,320.8,95.33Zm-3.27,0c0,1,.52,1.67,1.25,1.67s1.25-.71,1.25-1.69c0-.74-.35-1.67-1.23-1.67S317.53,94.55,317.53,95.38Z"/>
        <path class="b" d="M324.45,93.19v.63h-1.28v3.73h-.74V93.82h-1.28v-.63Z"/>
        <path class="b" d="M325.83,93.19v1.49a3,3,0,0,1,.67-.06c.88,0,1.78.39,1.78,1.46a1.28,1.28,0,0,1-.43,1,2.51,2.51,0,0,1-1.66.5,8.77,8.77,0,0,1-1.1-.06V93.19Zm0,3.81a3.44,3.44,0,0,0,.52,0c.57,0,1.19-.26,1.19-.93s-.6-.92-1.16-.92a2.87,2.87,0,0,0-.55,0Zm3.7-3.81v4.36h-.74V93.19Z"/>
        <path class="b" d="M179.76,120.48v5.43l.5,0,0,2.08h-.58l0-1.46H176l-.05,1.46h-.58l-.05-2.08.43,0a7.47,7.47,0,0,0,.56-1.33,9.43,9.43,0,0,0,.27-2.56v-1.54Zm-2.52,1.79a8.62,8.62,0,0,1-.29,2.48,6.12,6.12,0,0,1-.46,1.15H179v-4.77h-1.78Z"/>
        <path class="b" d="M181.86,122.19V124c0,.69,0,1.12,0,1.74h0c.25-.53.39-.83.66-1.34l1.29-2.25h.87v4.36H184V124.7c0-.71,0-1.08.05-1.78h0c-.26.56-.44.91-.68,1.35-.39.68-.84,1.51-1.28,2.28h-.86v-4.36Z"/>
        <path class="b" d="M185.88,123.61c0-.55,0-1,0-1.42h.68l0,.75h0a1.6,1.6,0,0,1,1.46-.85c1,0,1.74.89,1.74,2.22,0,1.56-.9,2.34-1.87,2.34a1.42,1.42,0,0,1-1.27-.69h0v2.37h-.74Zm.74,1.17a1.66,1.66,0,0,0,0,.32,1.18,1.18,0,0,0,1.12.93c.79,0,1.25-.69,1.25-1.69s-.43-1.62-1.22-1.62a1.21,1.21,0,0,0-1.13,1,1.2,1.2,0,0,0,0,.33Z"/>
        <path class="b" d="M191.13,124.51a1.36,1.36,0,0,0,1.41,1.52,2.5,2.5,0,0,0,1.14-.23l.13.57a3.32,3.32,0,0,1-1.37.27,2,2,0,0,1-2-2.2c0-1.31.73-2.35,1.93-2.35s1.7,1.25,1.7,2.06a2.55,2.55,0,0,1,0,.36Zm2.19-.56c0-.51-.19-1.29-1-1.29s-1.09.74-1.15,1.29Z"/>
        <path class="b" d="M195.71,122.19v1.89h.18l1.55-1.89h.91l-1.8,2c.67.08,1.07.54,1.39,1.33a9.3,9.3,0,0,0,.44,1.06h-.78a5.35,5.35,0,0,1-.38-.89,1.34,1.34,0,0,0-1.36-1h-.15v1.92H195v-4.36Z"/>
        <path class="b" d="M202,122.19v.63h-1.29v3.73h-.74v-3.73h-1.28v-.63Z"/>
        <path class="b" d="M206.23,124.33a2.08,2.08,0,0,1-2,2.32,2,2,0,0,1-2-2.24,2.08,2.08,0,0,1,2-2.32A2,2,0,0,1,206.23,124.33Zm-3.26,0c0,1,.52,1.67,1.25,1.67s1.25-.71,1.25-1.69c0-.74-.35-1.67-1.23-1.67S203,123.55,203,124.38Z"/>
        <path class="b" d="M207.18,123.61c0-.55,0-1,0-1.42h.67l0,.75h0a1.6,1.6,0,0,1,1.46-.85c1,0,1.74.89,1.74,2.22,0,1.56-.9,2.34-1.87,2.34a1.42,1.42,0,0,1-1.27-.69h0v2.37h-.74Zm.74,1.17a1.66,1.66,0,0,0,0,.32,1.18,1.18,0,0,0,1.12.93c.79,0,1.25-.69,1.25-1.69s-.43-1.62-1.22-1.62a1.21,1.21,0,0,0-1.13,1,1.2,1.2,0,0,0-.05.33Z"/>
        <path class="b" d="M213.8,122.24a8.94,8.94,0,0,1,1.31-.09c.68,0,1.82.11,1.82,1.09a1,1,0,0,1-.85,1v0a1.07,1.07,0,0,1,1,1.08c0,1.14-1.36,1.28-2.17,1.28-.45,0-.93,0-1.15,0Zm.7,3.79a5.93,5.93,0,0,0,.61,0c.5,0,1.25-.12,1.25-.75s-.6-.77-1.31-.77h-.55Zm0-2h.56c.55,0,1.12-.17,1.12-.69s-.35-.64-1.1-.64a4.52,4.52,0,0,0-.58,0Z"/>
        <path class="b" d="M218.79,122.19v1.49a3,3,0,0,1,.67-.06c.88,0,1.78.39,1.78,1.46a1.28,1.28,0,0,1-.43,1,2.51,2.51,0,0,1-1.66.5,8.77,8.77,0,0,1-1.1-.06v-4.34Zm0,3.81a3.44,3.44,0,0,0,.52,0c.56,0,1.19-.26,1.19-.93s-.6-.92-1.16-.92a2.87,2.87,0,0,0-.55,0Zm3.7-3.81v4.36h-.74v-4.36Z"/>
        <path class="b" d="M226.65,126.39a2.77,2.77,0,0,1-1.18.25,2,2,0,0,1-2.05-2.23,2.15,2.15,0,0,1,2.21-2.31,2.39,2.39,0,0,1,1,.23l-.17.61a1.65,1.65,0,0,0-.87-.21,1.48,1.48,0,0,0-1.45,1.65A1.46,1.46,0,0,0,225.6,126a2,2,0,0,0,.92-.22Z"/>
        <path class="b" d="M228.24,122.19v3.74h1.43v-3.74h.74v3.74h1.43v-3.74h.74v4.36h-5.07v-4.36Z"/>
        <path class="b" d="M234.21,124.51a1.36,1.36,0,0,0,1.41,1.52,2.5,2.5,0,0,0,1.14-.23l.13.57a3.24,3.24,0,0,1-1.37.27,2,2,0,0,1-2-2.2c0-1.31.73-2.35,1.93-2.35s1.7,1.25,1.7,2.06a2.55,2.55,0,0,1,0,.36Zm2.2-.56c0-.51-.2-1.29-1-1.29s-1.09.74-1.15,1.29Z"/>
        <path class="b" d="M238.74,122.19V124c0,.69,0,1.12,0,1.74h0c.24-.53.39-.83.66-1.34l1.28-2.25h.88v4.36h-.72V124.7c0-.71,0-1.08,0-1.78h0c-.26.56-.44.91-.68,1.35-.39.68-.84,1.51-1.28,2.28H238v-4.36Zm.49-1.77c0,.38.2.68.54.68s.54-.29.58-.68h.53a1,1,0,0,1-1.13,1.11c-.74,0-1-.49-1.07-1.11Z"/>
        <path class="b" d="M245.28,122.19v3.74h1.44v-3.74h.73v3.74h1.43v-3.74h.74v4.36h-5.07v-4.36Z"/>
        <path class="b" d="M251.58,122.19v1.89h.18l1.54-1.89h.91l-1.79,2c.66.08,1.06.54,1.38,1.33a9.52,9.52,0,0,0,.45,1.06h-.79a6.36,6.36,0,0,1-.38-.89,1.34,1.34,0,0,0-1.36-1h-.14v1.92h-.74v-4.36Z"/>
        <path class="b" d="M258.58,124.33a2.08,2.08,0,0,1-2.05,2.32,2,2,0,0,1-2-2.24,2.08,2.08,0,0,1,2-2.32A2,2,0,0,1,258.58,124.33Zm-3.26,0c0,1,.52,1.67,1.25,1.67s1.25-.71,1.25-1.69c0-.74-.35-1.67-1.24-1.67S255.32,123.55,255.32,124.38Z"/>
        <path class="b" d="M262.64,122.19v4.36h-.74v-3.74h-1.41V124c0,1.22-.11,2-.64,2.41a1.19,1.19,0,0,1-.82.27L259,126a.9.9,0,0,0,.41-.18c.39-.3.43-.91.43-1.88v-1.76Z"/>
        <path class="b" d="M264.59,122.19v1.49a3,3,0,0,1,.67-.06c.89,0,1.78.39,1.78,1.46a1.24,1.24,0,0,1-.43,1,2.5,2.5,0,0,1-1.65.5,8.94,8.94,0,0,1-1.11-.06v-4.34Zm0,3.81a3.67,3.67,0,0,0,.52,0c.57,0,1.19-.26,1.19-.93s-.6-.92-1.16-.92a2.87,2.87,0,0,0-.55,0Zm3.71-3.81v4.36h-.74v-4.36Z"/>
      </g>
      <g>
        <path class="b" d="M152.27,153.4v2h2.15v-2H155v4.72h-.59v-2.21h-2.15v2.21h-.57V153.4Z"/>
        <path class="b" d="M157.76,158.12l0-.42h0a1.18,1.18,0,0,1-1,.5.93.93,0,0,1-1-1c0-.82.68-1.27,1.92-1.26v-.07a.69.69,0,0,0-.73-.79,1.53,1.53,0,0,0-.83.25L156,155a1.89,1.89,0,0,1,1.05-.3c1,0,1.21.7,1.21,1.38v1.27a4.87,4.87,0,0,0,.06.81Zm-.09-1.73c-.63,0-1.35.11-1.35.77a.53.53,0,0,0,.55.59.8.8,0,0,0,.77-.57.69.69,0,0,0,0-.2Z"/>
        <path class="b" d="M160.56,154.78a5.61,5.61,0,0,1,1-.08c.53,0,1.42.09,1.42.85a.78.78,0,0,1-.67.76h0a.84.84,0,0,1,.81.84c0,.89-1,1-1.68,1a8.66,8.66,0,0,1-.9,0Zm.55,2.94a3.38,3.38,0,0,0,.47,0c.39,0,1-.1,1-.59s-.46-.6-1-.6h-.42Zm0-1.56h.43c.43,0,.87-.14.87-.54s-.27-.49-.85-.49l-.45,0Z"/>
        <path class="b" d="M166,154.73v.49h-1v2.9h-.58v-2.9h-1v-.49Z"/>
        <path class="b" d="M169.29,156.4a1.62,1.62,0,0,1-1.59,1.8,1.57,1.57,0,0,1-1.53-1.74,1.61,1.61,0,0,1,1.58-1.8A1.56,1.56,0,0,1,169.29,156.4Zm-2.54,0c0,.74.41,1.3,1,1.3s1-.55,1-1.32c0-.57-.27-1.3-1-1.3S166.75,155.79,166.75,156.44Z"/>
        <path class="b" d="M170,155.84c0-.43,0-.78,0-1.11h.52l0,.59h0a1.24,1.24,0,0,1,1.14-.66c.77,0,1.35.69,1.35,1.72,0,1.22-.7,1.82-1.45,1.82a1.11,1.11,0,0,1-1-.53h0v1.84H170Zm.57.9a2.06,2.06,0,0,0,0,.26.9.9,0,0,0,.87.72c.62,0,1-.53,1-1.31s-.34-1.26-.95-1.26a.94.94,0,0,0-.88.76,1.09,1.09,0,0,0,0,.25Z"/>
        <path class="b" d="M176.68,156.4a1.62,1.62,0,0,1-1.59,1.8,1.57,1.57,0,0,1-1.53-1.74,1.61,1.61,0,0,1,1.58-1.8A1.56,1.56,0,0,1,176.68,156.4Zm-2.53,0c0,.74.4,1.3,1,1.3s1-.55,1-1.32c0-.57-.27-1.3-1-1.3S174.15,155.79,174.15,156.44Z"/>
        <path class="b" d="M177.45,154.73h.71l.59,1.71.29.93h0c.07-.25.25-.79.38-1.16l.51-1.48h.72l.23,3.39h-.56l-.07-1.61c0-.37,0-.8-.06-1.22h0c-.09.31-.17.59-.35,1.1l-.62,1.71h-.42l-.57-1.67c-.1-.32-.23-.81-.31-1.13h0c0,.4,0,.85,0,1.22l-.08,1.6h-.54Z"/>
        <path class="b" d="M183.58,154.73v1.43c0,.54,0,.88,0,1.36h0c.19-.42.3-.65.51-1l1-1.76h.68v3.39h-.56v-1.43c0-.56,0-.84,0-1.39h0c-.2.44-.34.71-.52,1-.31.53-.66,1.18-1,1.77H183v-3.39Z"/>
        <path class="b" d="M188.67,154.73v1.37h1.52v-1.37h.57v3.39h-.57v-1.53h-1.52v1.53h-.58v-3.39Z"/>
        <path class="b" d="M193.49,158.12l-.05-.42h0a1.18,1.18,0,0,1-1,.5.93.93,0,0,1-1-1c0-.82.68-1.27,1.92-1.26v-.07a.69.69,0,0,0-.73-.79,1.53,1.53,0,0,0-.83.25l-.13-.4a1.89,1.89,0,0,1,1.05-.3c1,0,1.21.7,1.21,1.38v1.27a4.87,4.87,0,0,0,.06.81Zm-.09-1.73c-.63,0-1.35.11-1.35.77a.53.53,0,0,0,.55.59.8.8,0,0,0,.77-.57.69.69,0,0,0,0-.2Z"/>
        <path class="b" d="M198.46,154.73v.49h-1v2.9h-.58v-2.9h-1v-.49Z"/>
        <path class="b" d="M199,155.84c0-.43,0-.78,0-1.11h.52l0,.59h0a1.23,1.23,0,0,1,1.14-.66c.77,0,1.35.69,1.35,1.72,0,1.22-.7,1.82-1.45,1.82a1.11,1.11,0,0,1-1-.53h0v1.84H199Zm.57.9a1.09,1.09,0,0,0,0,.26.9.9,0,0,0,.87.72c.61,0,1-.53,1-1.31s-.34-1.26-.95-1.26a.94.94,0,0,0-.88.76,1.09,1.09,0,0,0,0,.25Z"/>
        <path class="b" d="M203.06,156.54a1.06,1.06,0,0,0,1.1,1.18,1.93,1.93,0,0,0,.88-.18l.1.44a2.39,2.39,0,0,1-1.06.21,1.52,1.52,0,0,1-1.57-1.7c0-1,.56-1.83,1.5-1.83a1.41,1.41,0,0,1,1.32,1.59c0,.13,0,.23,0,.29Zm1.71-.44c0-.39-.16-1-.81-1s-.85.57-.89,1Z"/>
        <path class="b" d="M208.18,154.73v.49h-1v2.9h-.58v-2.9h-1v-.49Z"/>
        <path class="b" d="M209.25,154.73v1.15a3,3,0,0,1,.53,0c.72,0,1.48.24,1.48,1.14a1,1,0,0,1-.33.78,2.16,2.16,0,0,1-1.39.39,7,7,0,0,1-.86,0v-3.38Zm0,3,.43,0c.44,0,1-.15,1-.72s-.58-.71-1-.71a2.86,2.86,0,0,0-.42,0Z"/>
        <path class="b" d="M212.31,156.54a1.06,1.06,0,0,0,1.1,1.18,2,2,0,0,0,.88-.18l.1.44a2.47,2.47,0,0,1-1.06.21,1.53,1.53,0,0,1-1.58-1.7c0-1,.57-1.83,1.5-1.83s1.32,1,1.32,1.59a1.85,1.85,0,0,1,0,.29Zm1.7-.44c0-.39-.15-1-.8-1s-.85.57-.9,1Z"/>
        <path class="b" d="M215.33,154.73H216l.58,1.71c.08.25.22.67.29.93h0c.07-.25.25-.79.37-1.16l.52-1.48h.72l.22,3.39h-.55l-.07-1.61c0-.37,0-.8-.06-1.22h0c-.09.31-.17.59-.35,1.1l-.62,1.71h-.42l-.57-1.67c-.1-.32-.24-.81-.31-1.13h0c0,.4,0,.85-.06,1.22l-.07,1.6h-.54Z"/>
        <path class="b" d="M221.05,156.19h1.62a1.06,1.06,0,0,0-1.11-1.06,1.75,1.75,0,0,0-.76.19l-.13-.4a2,2,0,0,1,1-.26,1.52,1.52,0,0,1,1.16.48,1.92,1.92,0,0,1,.43,1.3,1.63,1.63,0,0,1-1.69,1.76,2,2,0,0,1-.94-.23l.12-.44a1.84,1.84,0,0,0,.8.18,1.09,1.09,0,0,0,1.12-1.1h-1.61Z"/>
        <path class="b" d="M226.1,154.73v.49h-1v2.9h-.58v-2.9h-1v-.49Z"/>
        <path class="b" d="M228.33,158.12l0-.42h0a1.2,1.2,0,0,1-1,.5.94.94,0,0,1-1-1c0-.82.69-1.27,1.92-1.26v-.07a.69.69,0,0,0-.72-.79,1.59,1.59,0,0,0-.84.25l-.13-.4a1.94,1.94,0,0,1,1.05-.3c1,0,1.22.7,1.22,1.38v1.27a5,5,0,0,0,.05.81Zm-.08-1.73c-.64,0-1.36.11-1.36.77a.53.53,0,0,0,.55.59.79.79,0,0,0,.77-.57.71.71,0,0,0,0-.2Z"/>
        <path class="b" d="M230,154.73l1.06,1.48h.12v-1.48h.55v1.48h.11l1.06-1.48h.67l-1.27,1.55c.49.05.77.35,1,.89.12.33.22.69.35,1h-.58a5.47,5.47,0,0,1-.29-.77c-.2-.56-.49-.73-.91-.73h-.1v1.5h-.55v-1.5h-.11c-.45,0-.72.18-.92.73a5.4,5.4,0,0,1-.3.77h-.56c.13-.27.23-.63.35-.94.19-.55.48-.85,1-.9l-1.27-1.55Z"/>
        <path class="b" d="M236,158.12l0-.42h0a1.18,1.18,0,0,1-1,.5.94.94,0,0,1-1-1c0-.82.69-1.27,1.92-1.26v-.07a.69.69,0,0,0-.72-.79,1.59,1.59,0,0,0-.84.25l-.13-.4a1.94,1.94,0,0,1,1.05-.3c1,0,1.22.7,1.22,1.38v1.27a5,5,0,0,0,.05.81Zm-.08-1.73c-.64,0-1.36.11-1.36.77a.53.53,0,0,0,.55.59.79.79,0,0,0,.77-.57.71.71,0,0,0,0-.2Z"/>
        <path class="b" d="M237.68,154.73l.46.73.32.56h0a5.88,5.88,0,0,1,.32-.56l.45-.73h.62l-1.09,1.64,1.13,1.75h-.66l-.47-.76c-.13-.2-.23-.38-.35-.59h0c-.11.21-.22.39-.34.59l-.46.76H237l1.14-1.73L237,154.73Z"/>
        <path class="b" d="M244.76,156.4a1.61,1.61,0,0,1-1.59,1.8,1.57,1.57,0,0,1-1.53-1.74,1.61,1.61,0,0,1,1.59-1.8A1.56,1.56,0,0,1,244.76,156.4Zm-2.53,0c0,.74.4,1.3,1,1.3s1-.55,1-1.32c0-.57-.27-1.3-1-1.3S242.23,155.79,242.23,156.44Z"/>
        <path class="b" d="M247.92,153.59a5.56,5.56,0,0,1-.67.15,1.57,1.57,0,0,0-1.14.64,2.62,2.62,0,0,0-.35,1.12h0a1.23,1.23,0,0,1,1.11-.77c.79,0,1.36.6,1.36,1.68s-.54,1.79-1.47,1.79c-1.13,0-1.5-1.14-1.5-2.27a3.12,3.12,0,0,1,.5-1.88,1.9,1.9,0,0,1,1.37-.79,4.35,4.35,0,0,0,.79-.19Zm-1.14,1.6a.79.79,0,0,0-.73.46,1.62,1.62,0,0,0-.15.72c0,.56.25,1.37.89,1.37s.88-.66.88-1.28S247.46,155.19,246.78,155.19Z"/>
        <path class="b" d="M251.88,156.4a1.62,1.62,0,0,1-1.59,1.8,1.57,1.57,0,0,1-1.53-1.74,1.61,1.61,0,0,1,1.58-1.8A1.56,1.56,0,0,1,251.88,156.4Zm-2.53,0c0,.74.4,1.3,1,1.3s1-.55,1-1.32c0-.57-.27-1.3-1-1.3S249.35,155.79,249.35,156.44Z"/>
        <path class="b" d="M252.88,156.16h.28c.49,0,.82-.24.82-.56s-.26-.49-.62-.49a1.43,1.43,0,0,0-.77.24l-.15-.38a1.93,1.93,0,0,1,1.06-.31c.49,0,1.09.24,1.09.89a.84.84,0,0,1-.72.77v0a.87.87,0,0,1,.87.85c0,.73-.71,1-1.38,1a2.09,2.09,0,0,1-1-.27l.15-.41a1.82,1.82,0,0,0,.85.23c.48,0,.79-.25.79-.58s-.45-.58-.94-.58h-.29Z"/>
        <path class="b" d="M256,154.73v1.37h1.52v-1.37h.57v3.39h-.57v-1.53H256v1.53h-.58v-3.39Z"/>
        <path class="b" d="M260.85,158.12l-.05-.42h0a1.18,1.18,0,0,1-1,.5.93.93,0,0,1-1-1c0-.82.68-1.27,1.92-1.26v-.07a.69.69,0,0,0-.73-.79,1.56,1.56,0,0,0-.83.25l-.13-.4a1.91,1.91,0,0,1,1.05-.3c1,0,1.21.7,1.21,1.38v1.27a4.87,4.87,0,0,0,.06.81Zm-.09-1.73c-.63,0-1.35.11-1.35.77a.53.53,0,0,0,.55.59.8.8,0,0,0,.77-.57.69.69,0,0,0,0-.2Z"/>
        <path class="b" d="M262.7,154.73v1.12c0,.43.15.72.66.72a1.17,1.17,0,0,0,.69-.24v-1.6h.57v3.39h-.57v-1.35h0a1.67,1.67,0,0,1-.87.25,1,1,0,0,1-1.05-1.1v-1.19Z"/>
        <path class="b" d="M265.9,156.54a1.06,1.06,0,0,0,1.1,1.18,2,2,0,0,0,.88-.18l.1.44a2.39,2.39,0,0,1-1.06.21,1.52,1.52,0,0,1-1.57-1.7c0-1,.56-1.83,1.5-1.83a1.41,1.41,0,0,1,1.32,1.59c0,.13,0,.23,0,.29Zm1.71-.44c0-.39-.16-1-.81-1s-.85.57-.89,1Z"/>
        <path class="b" d="M269.45,154.73v1.37H271v-1.37h.57v3.39H271v-1.53h-1.52v1.53h-.58v-3.39Z"/>
        <path class="b" d="M273.06,154.73v1.16a2.49,2.49,0,0,1,.52,0c.69,0,1.38.3,1.38,1.13a1,1,0,0,1-.33.79,2,2,0,0,1-1.29.39,7.12,7.12,0,0,1-.86,0v-3.38Zm0,3,.4,0c.45,0,.93-.19.93-.72s-.47-.71-.9-.71a2.63,2.63,0,0,0-.43,0Zm2.88-3v3.39h-.57v-3.39Z"/>
        <path class="b" d="M280.69,154.73v3.39h-.57v-2.9H279v.88c0,1-.08,1.59-.5,1.88a.92.92,0,0,1-.63.21l-.06-.49a.68.68,0,0,0,.31-.14c.3-.23.33-.7.33-1.46v-1.37Z"/>
        <path class="b" d="M282,156.54a1.06,1.06,0,0,0,1.1,1.18,1.93,1.93,0,0,0,.88-.18l.1.44a2.39,2.39,0,0,1-1.06.21,1.52,1.52,0,0,1-1.57-1.7c0-1,.56-1.83,1.5-1.83a1.41,1.41,0,0,1,1.32,1.59c0,.13,0,.23,0,.29Zm1.71-.44c0-.39-.16-1-.81-1s-.85.57-.89,1Z"/>
        <path class="b" d="M287.24,158a2.11,2.11,0,0,1-.92.19,1.57,1.57,0,0,1-1.59-1.73,1.68,1.68,0,0,1,1.72-1.8,1.75,1.75,0,0,1,.8.18l-.13.48a1.23,1.23,0,0,0-.67-.17,1.15,1.15,0,0,0-1.13,1.29,1.13,1.13,0,0,0,1.11,1.26,1.69,1.69,0,0,0,.71-.16Z"/>
        <path class="b" d="M290.19,154.73v.49h-1v2.9h-.58v-2.9h-1v-.49Z"/>
        <path class="b" d="M291.26,154.73v1.37h1.52v-1.37h.57v3.39h-.57v-1.53h-1.52v1.53h-.58v-3.39Z"/>
        <path class="b" d="M294.84,154.73v1.43c0,.54,0,.88,0,1.36h0c.19-.42.3-.65.51-1l1-1.76H297v3.39h-.55v-1.43c0-.56,0-.84,0-1.39h0c-.21.44-.35.71-.53,1-.31.53-.66,1.18-1,1.77h-.67v-3.39Z"/>
        <path class="b" d="M298.53,154.73v2.91H300v-2.91h.58v2.93h.33l0,1.53h-.44l0-1.08H298v-3.39Z"/>
        <path class="b" d="M302.16,154.73v1.16a2.6,2.6,0,0,1,.53,0c.68,0,1.38.3,1.38,1.13a1,1,0,0,1-.33.79,2,2,0,0,1-1.29.39,7,7,0,0,1-.86,0v-3.38Zm0,3,.41,0c.44,0,.92-.19.92-.72s-.46-.71-.9-.71a2.72,2.72,0,0,0-.43,0Zm2.89-3v3.39h-.58v-3.39Z"/>
        <path class="b" d="M305.62,159a10.08,10.08,0,0,0,.4-1.68l.65-.07a8.92,8.92,0,0,1-.63,1.7Z"/>
        <path class="b" d="M311.4,154.73v3.39h-.58v-2.9h-1.49v2.9h-.57v-3.39Z"/>
        <path class="b" d="M315.24,156.4a1.62,1.62,0,0,1-1.59,1.8,1.57,1.57,0,0,1-1.54-1.74,1.61,1.61,0,0,1,1.59-1.8A1.56,1.56,0,0,1,315.24,156.4Zm-2.54,0c0,.74.41,1.3,1,1.3s1-.55,1-1.32c0-.57-.27-1.3-.95-1.3S312.7,155.79,312.7,156.44Z"/>
        <path class="b" d="M152.25,163.13v1.48h.14l1.2-1.48h.71l-1.4,1.54c.52.05.83.42,1.08,1a7.43,7.43,0,0,0,.35.82h-.61a4,4,0,0,1-.3-.69,1,1,0,0,0-1.06-.8h-.11v1.49h-.57v-3.39Z"/>
        <path class="b" d="M157.7,164.8a1.62,1.62,0,0,1-1.6,1.8,1.57,1.57,0,0,1-1.53-1.74,1.61,1.61,0,0,1,1.59-1.8A1.57,1.57,0,0,1,157.7,164.8Zm-2.54,0c0,.74.4,1.3,1,1.3s1-.55,1-1.32c0-.57-.27-1.3-1-1.3S155.16,164.19,155.16,164.84Z"/>
        <path class="b" d="M160.54,163.13v.49h-1v2.9H159v-2.9h-1v-.49Z"/>
        <path class="b" d="M163.86,164.8a1.62,1.62,0,0,1-1.6,1.8,1.57,1.57,0,0,1-1.53-1.74,1.61,1.61,0,0,1,1.59-1.8A1.56,1.56,0,0,1,163.86,164.8Zm-2.54,0c0,.74.4,1.3,1,1.3s1-.55,1-1.32c0-.57-.27-1.3-1-1.3S161.32,164.19,161.32,164.84Z"/>
        <path class="b" d="M164.59,164.24c0-.43,0-.78,0-1.11h.52l0,.59h0a1.22,1.22,0,0,1,1.13-.66c.78,0,1.36.69,1.36,1.72,0,1.22-.7,1.82-1.46,1.82a1.11,1.11,0,0,1-1-.53h0v1.84h-.58Zm.58.9a2,2,0,0,0,0,.26.92.92,0,0,0,.88.72c.61,0,1-.53,1-1.31s-.34-1.26-1-1.26a.94.94,0,0,0-.87.76,1.09,1.09,0,0,0,0,.25Z"/>
        <path class="b" d="M168.91,163.13v1.16a2.6,2.6,0,0,1,.53,0c.68,0,1.38.3,1.38,1.13a1,1,0,0,1-.33.79,2,2,0,0,1-1.29.39,7,7,0,0,1-.86-.05v-3.38Zm0,3,.41,0c.44,0,.92-.19.92-.72s-.46-.71-.9-.71a2.72,2.72,0,0,0-.43,0Zm2.89-3v3.39h-.58v-3.39Z"/>
        <path class="b" d="M172.78,163.13h.72l.58,1.71c.08.26.22.67.29.94h0c.07-.26.25-.8.38-1.17l.51-1.48H176l.23,3.39h-.56l-.07-1.61c0-.37-.05-.8-.06-1.22h0c-.08.31-.17.59-.35,1.1l-.61,1.71h-.43l-.56-1.67c-.1-.32-.24-.81-.32-1.13h0c0,.4,0,.85-.05,1.22l-.08,1.6h-.54Z"/>
        <path class="b" d="M178.41,163.13h.71l.58,1.71c.08.26.22.67.29.94h0c.07-.26.25-.8.37-1.17l.52-1.48h.72l.22,3.39h-.55l-.07-1.61c0-.37-.05-.8-.06-1.22h0c-.09.31-.17.59-.35,1.1l-.62,1.71h-.42l-.57-1.67c-.1-.32-.24-.81-.31-1.13h0c0,.4,0,.85-.05,1.22l-.08,1.6h-.54Z"/>
        <path class="b" d="M185.49,164.8a1.62,1.62,0,0,1-1.59,1.8,1.57,1.57,0,0,1-1.53-1.74,1.61,1.61,0,0,1,1.58-1.8A1.56,1.56,0,0,1,185.49,164.8Zm-2.53,0c0,.74.4,1.3,1,1.3s1-.55,1-1.32c0-.57-.27-1.3-1-1.3S183,164.19,183,164.84Z"/>
        <path class="b" d="M186.45,163.13l1.05,1.48h.12v-1.48h.56v1.48h.11l1.06-1.48H190l-1.27,1.55c.49,0,.77.35,1,.89a7.94,7.94,0,0,0,.35,1h-.58a4.46,4.46,0,0,1-.29-.77c-.2-.56-.5-.72-.91-.72h-.1v1.49h-.56V165h-.1c-.45,0-.72.17-.92.72a6.93,6.93,0,0,1-.3.77h-.57a8,8,0,0,0,.35-.94c.2-.55.49-.85,1-.9l-1.27-1.55Z"/>
        <path class="b" d="M191.15,163.13v1.37h1.52v-1.37h.57v3.39h-.57V165h-1.52v1.53h-.58v-3.39Z"/>
        <path class="b" d="M197.09,164.8a1.62,1.62,0,0,1-1.59,1.8,1.57,1.57,0,0,1-1.54-1.74,1.61,1.61,0,0,1,1.59-1.8A1.56,1.56,0,0,1,197.09,164.8Zm-2.54,0c0,.74.4,1.3,1,1.3s1-.55,1-1.32c0-.57-.27-1.3-1-1.3S194.55,164.19,194.55,164.84Z"/>
        <path class="b" d="M201.86,163.13v3.39h-.59v-2.9h-1.48v2.9h-.58v-3.39Z"/>
        <path class="b" d="M205.7,164.8a1.62,1.62,0,0,1-1.6,1.8,1.57,1.57,0,0,1-1.53-1.74,1.61,1.61,0,0,1,1.59-1.8A1.57,1.57,0,0,1,205.7,164.8Zm-2.54,0c0,.74.4,1.3,1,1.3s1-.55,1-1.32c0-.57-.27-1.3-1-1.3S203.16,164.19,203.16,164.84Z"/>
        <path class="b" d="M209.06,163.13v3.39h-.58v-2.9H207v2.9h-.57v-3.39Z"/>
        <path class="b" d="M211.78,166.52l-.05-.42h0a1.18,1.18,0,0,1-1,.5.93.93,0,0,1-1-1c0-.82.68-1.27,1.92-1.26v-.07a.69.69,0,0,0-.73-.79,1.53,1.53,0,0,0-.83.25l-.13-.4a1.89,1.89,0,0,1,1-.3c1,0,1.21.7,1.21,1.38v1.27a4.87,4.87,0,0,0,.06.81Zm-.09-1.73c-.63,0-1.35.11-1.35.77a.53.53,0,0,0,.55.59.8.8,0,0,0,.77-.57.64.64,0,0,0,0-.2Z"/>
        <path class="b" d="M215.47,166.4a2.11,2.11,0,0,1-.92.19,1.57,1.57,0,0,1-1.59-1.73,1.68,1.68,0,0,1,1.72-1.8,1.8,1.8,0,0,1,.81.18l-.14.48a1.2,1.2,0,0,0-.67-.17,1.15,1.15,0,0,0-1.13,1.29,1.13,1.13,0,0,0,1.11,1.26,1.65,1.65,0,0,0,.71-.16Z"/>
        <path class="b" d="M218.42,163.13v.49h-1v2.9h-.57v-2.9h-1v-.49Z"/>
        <path class="b" d="M219.49,163.13v1.15a2.91,2.91,0,0,1,.53,0c.72,0,1.48.24,1.48,1.14a1,1,0,0,1-.34.78,2.13,2.13,0,0,1-1.38.39,7,7,0,0,1-.86-.05v-3.38Zm0,3,.43,0c.44,0,1-.15,1-.72s-.58-.71-1-.71a2.77,2.77,0,0,0-.42,0Z"/>
        <path class="b" d="M224.19,163.13v1.37h1.52v-1.37h.57v3.39h-.57V165h-1.52v1.53h-.58v-3.39Z"/>
        <path class="b" d="M229,166.52l0-.42h0a1.18,1.18,0,0,1-1,.5.94.94,0,0,1-1-1c0-.82.69-1.27,1.93-1.26v-.07a.69.69,0,0,0-.73-.79,1.53,1.53,0,0,0-.83.25l-.14-.4a1.94,1.94,0,0,1,1-.3c1,0,1.22.7,1.22,1.38v1.27a5,5,0,0,0,.05.81Zm-.08-1.73c-.63,0-1.36.11-1.36.77a.54.54,0,0,0,.55.59.81.81,0,0,0,.78-.57.64.64,0,0,0,0-.2Z"/>
        <path class="b" d="M231.64,166.52v-.37l.45-.47c1.1-1.11,1.6-1.7,1.6-2.38a.79.79,0,0,0-.85-.89,1.44,1.44,0,0,0-.91.38l-.19-.43a1.82,1.82,0,0,1,1.22-.47,1.25,1.25,0,0,1,1.31,1.33c0,.84-.57,1.52-1.48,2.44l-.34.34h1.93v.51Z"/>
        <path class="b" d="M234.84,167.39a11.2,11.2,0,0,0,.39-1.68l.65-.07a8.29,8.29,0,0,1-.63,1.7Z"/>
        <path class="b" d="M239,162.49h-1.64l-.16,1.17a2.69,2.69,0,0,1,.35,0,1.69,1.69,0,0,1,.92.25,1.3,1.3,0,0,1,.62,1.17,1.53,1.53,0,0,1-1.6,1.55,2,2,0,0,1-1.07-.28l.14-.47a1.88,1.88,0,0,0,.92.25,1,1,0,0,0,1-1c0-.59-.38-1-1.24-1a4.34,4.34,0,0,0-.59,0l.28-2.19H239Z"/>
        <path class="b" d="M241.51,164.59h1.61a1.05,1.05,0,0,0-1.1-1.06,1.76,1.76,0,0,0-.77.19l-.13-.4a2,2,0,0,1,1-.26,1.54,1.54,0,0,1,1.16.48,1.92,1.92,0,0,1,.44,1.3,1.64,1.64,0,0,1-1.7,1.76,2,2,0,0,1-.93-.23l.11-.44a1.84,1.84,0,0,0,.8.18,1.09,1.09,0,0,0,1.12-1.1h-1.6Z"/>
        <path class="b" d="M246.55,163.13v.49h-1v2.9H245v-2.9h-1v-.49Z"/>
        <path class="b" d="M248.78,166.52l0-.42h0a1.18,1.18,0,0,1-1,.5.94.94,0,0,1-1-1c0-.82.69-1.27,1.93-1.26v-.07a.69.69,0,0,0-.73-.79,1.53,1.53,0,0,0-.83.25l-.14-.4a1.94,1.94,0,0,1,1-.3c1,0,1.22.7,1.22,1.38v1.27a5,5,0,0,0,.05.81Zm-.08-1.73c-.64,0-1.36.11-1.36.77a.53.53,0,0,0,.55.59.79.79,0,0,0,.77-.57.45.45,0,0,0,0-.2Z"/>
        <path class="b" d="M250.47,163.13l1.06,1.48h.12v-1.48h.55v1.48h.11l1.06-1.48H254l-1.26,1.55c.48,0,.76.35,1,.89a8,8,0,0,0,.34,1h-.58a7.08,7.08,0,0,1-.29-.77c-.2-.56-.49-.72-.91-.72h-.1v1.49h-.55V165h-.11c-.45,0-.72.17-.92.72a5.4,5.4,0,0,1-.3.77h-.56c.13-.27.24-.63.35-.94.2-.55.48-.85,1-.9l-1.27-1.55Z"/>
      </g>
      <circle class="b" cx="160.62" cy="95.9" r="9.97"/>
      <circle class="b" cx="160.18" cy="70.14" r="9.9"/>
      <g>
        <path class="b" d="M154.6,47.25l1.14,2.59c.14.36.28.71.41,1.07h0c.1-.32.21-.67.36-1.1l.89-2.56h.78L157,50.37a11.47,11.47,0,0,1-1.07,2.3,1.58,1.58,0,0,1-1.3.75,1.45,1.45,0,0,1-.42-.05l.08-.64.27,0c.6,0,.95-.61,1.12-1a.38.38,0,0,0,0-.37l-1.91-4.09Z"/>
        <path class="b" d="M161.27,53.16a2.62,2.62,0,0,1-1.18.25A2,2,0,0,1,158,51.19a2.16,2.16,0,0,1,2.21-2.32,2.39,2.39,0,0,1,1,.23l-.17.61a1.65,1.65,0,0,0-.87-.21,1.65,1.65,0,0,0,0,3.28,2.15,2.15,0,0,0,.92-.21Z"/>
        <path class="b" d="M165.41,49v4.36h-.74V49.58h-1.41v1.14c0,1.22-.11,2-.65,2.41a1.14,1.14,0,0,1-.81.27l-.08-.62a1,1,0,0,0,.41-.18c.38-.3.42-.91.42-1.88V49Z"/>
        <path class="b" d="M170.35,51.11a2.07,2.07,0,0,1-2,2.31,2,2,0,0,1-2-2.24,2.09,2.09,0,0,1,2-2.32A2,2,0,0,1,170.35,51.11Zm-3.26,0c0,1,.52,1.68,1.25,1.68s1.25-.72,1.25-1.7c0-.73-.35-1.67-1.23-1.67S167.09,50.32,167.09,51.15Z"/>
        <path class="b" d="M171.28,49a7.67,7.67,0,0,1,1.31-.1c.69,0,1.83.12,1.83,1.09a1,1,0,0,1-.86,1v0a1.08,1.08,0,0,1,1,1.08c0,1.14-1.36,1.28-2.16,1.28-.46,0-.94,0-1.16,0ZM172,52.8a3.82,3.82,0,0,0,.6,0c.5,0,1.25-.12,1.25-.75s-.6-.77-1.31-.77H172Zm0-2h.56c.55,0,1.12-.17,1.12-.68s-.36-.64-1.11-.64c-.24,0-.4,0-.57,0Z"/>
        <path class="b" d="M176.27,49v1.76h1.95V49H179v4.36h-.74v-2h-1.95v2h-.74V49Z"/>
        <path class="b" d="M180.91,49v1.49a3.09,3.09,0,0,1,.67-.05c.89,0,1.78.38,1.78,1.45a1.24,1.24,0,0,1-.43,1,2.45,2.45,0,0,1-1.65.51,8.77,8.77,0,0,1-1.11-.07V49Zm0,3.81a3.55,3.55,0,0,0,.52,0c.57,0,1.19-.25,1.19-.93S182,51,181.46,51a2.87,2.87,0,0,0-.55,0ZM184.62,49v4.36h-.74V49Z"/>
        <path class="b" d="M186.26,51.29a1.35,1.35,0,0,0,1.41,1.51,2.53,2.53,0,0,0,1.14-.23l.12.57a3.07,3.07,0,0,1-1.36.27,2,2,0,0,1-2-2.2c0-1.31.73-2.35,1.93-2.35a1.83,1.83,0,0,1,1.7,2.06,3.12,3.12,0,0,1,0,.37Zm2.19-.57c0-.5-.2-1.29-1-1.29s-1.09.74-1.15,1.29Z"/>
        <path class="b" d="M195.62,51.11a2.07,2.07,0,0,1-2.05,2.31,2,2,0,0,1-2-2.24,2.08,2.08,0,0,1,2-2.32A2,2,0,0,1,195.62,51.11Zm-3.26,0c0,1,.52,1.68,1.25,1.68s1.25-.72,1.25-1.7c0-.73-.35-1.67-1.24-1.67S192.36,50.32,192.36,51.15Z"/>
        <path class="b" d="M199.68,47.49a6.41,6.41,0,0,1-.86.2,2,2,0,0,0-1.46.81,3.15,3.15,0,0,0-.45,1.44h0a1.58,1.58,0,0,1,1.43-1c1,0,1.75.77,1.75,2.15s-.7,2.31-1.9,2.31c-1.45,0-1.92-1.47-1.92-2.92a4,4,0,0,1,.63-2.41,2.48,2.48,0,0,1,1.77-1,5.25,5.25,0,0,0,1-.23Zm-1.47,2.06a1,1,0,0,0-.93.59,2,2,0,0,0-.2.93c0,.72.33,1.76,1.14,1.76s1.13-.85,1.13-1.65S199.09,49.55,198.21,49.55Z"/>
        <path class="b" d="M204.78,51.11a2.08,2.08,0,0,1-2.05,2.31,2,2,0,0,1-2-2.24,2.08,2.08,0,0,1,2-2.32A2,2,0,0,1,204.78,51.11Zm-3.27,0c0,1,.52,1.68,1.25,1.68s1.25-.72,1.25-1.7c0-.73-.35-1.67-1.23-1.67S201.51,50.32,201.51,51.15Z"/>
        <path class="b" d="M206.06,50.79h.36c.63,0,1.05-.3,1.05-.71s-.33-.63-.8-.63a1.89,1.89,0,0,0-1,.31l-.19-.49a2.51,2.51,0,0,1,1.37-.4c.63,0,1.39.3,1.39,1.15a1.08,1.08,0,0,1-.92,1v0a1.12,1.12,0,0,1,1.12,1.08c0,1-.91,1.3-1.78,1.3a2.63,2.63,0,0,1-1.33-.35l.19-.53a2.3,2.3,0,0,0,1.09.3c.62,0,1-.32,1-.75,0-.59-.58-.75-1.2-.75h-.37Z"/>
        <path class="b" d="M210.11,49v1.76h1.95V49h.74v4.36h-.74v-2h-1.95v2h-.74V49Z"/>
        <path class="b" d="M216.3,53.32l-.06-.55h0a1.53,1.53,0,0,1-1.26.65,1.21,1.21,0,0,1-1.26-1.25c0-1.06.88-1.63,2.47-1.62v-.09a.88.88,0,0,0-.93-1,2,2,0,0,0-1.07.32l-.17-.52a2.47,2.47,0,0,1,1.35-.39c1.26,0,1.56.91,1.56,1.79v1.63a6.63,6.63,0,0,0,.07,1Zm-.11-2.22c-.82,0-1.74.13-1.74,1a.68.68,0,0,0,.7.75,1,1,0,0,0,1-.72,1.17,1.17,0,0,0,0-.26Z"/>
        <path class="b" d="M218.68,49V50.4c0,.54.2.92.85.92a1.46,1.46,0,0,0,.88-.3V49h.74v4.36h-.74V51.57h0a2.06,2.06,0,0,1-1.12.34,1.26,1.26,0,0,1-1.35-1.42V49Z"/>
        <path class="b" d="M222.8,51.29a1.35,1.35,0,0,0,1.41,1.51,2.53,2.53,0,0,0,1.14-.23l.12.57a3.09,3.09,0,0,1-1.37.27,2,2,0,0,1-2-2.2c0-1.31.73-2.35,1.93-2.35a1.83,1.83,0,0,1,1.7,2.06c0,.16,0,.29,0,.37Zm2.19-.57c0-.5-.2-1.29-1-1.29s-1.09.74-1.15,1.29Z"/>
        <path class="b" d="M227.36,49v1.76h1.95V49h.74v4.36h-.74v-2h-1.95v2h-.74V49Z"/>
        <path class="b" d="M232,49V50.8c0,.69,0,1.13-.05,1.75h0c.25-.53.39-.84.66-1.35L233.9,49h.87v4.36h-.71V51.48c0-.72,0-1.08.05-1.79h0c-.26.56-.44.91-.68,1.35-.39.68-.84,1.52-1.28,2.28h-.86V49Z"/>
        <path class="b" d="M239,53.32h-.74V51.49h-.55a.91.91,0,0,0-.69.25,3,3,0,0,0-.58,1.22,2.42,2.42,0,0,1-.17.36h-.8a2.5,2.5,0,0,0,.26-.49,3.53,3.53,0,0,1,.64-1.32,1,1,0,0,1,.47-.25v0a1.12,1.12,0,0,1-1.09-1.08,1,1,0,0,1,.55-.94,2.7,2.7,0,0,1,1.37-.3A9.93,9.93,0,0,1,239,49Zm-.74-3.83a3.61,3.61,0,0,0-.62-.05c-.51,0-1.11.15-1.11.76s.65.75,1.09.75h.64Z"/>
        <path class="b" d="M240.06,49.68a.51.51,0,1,1,.5.56A.51.51,0,0,1,240.06,49.68Zm0,3.18a.51.51,0,1,1,1,0,.51.51,0,1,1-1,0Z"/>
      </g>
      <ellipse class="b" cx="160.94" cy="124.76" rx="10.04" ry="9.92"/>
      <g>
        <path class="c" d="M160.48,76.56h0a.2.2,0,0,1-.19-.21V64.62a.2.2,0,0,1,.19-.22h0a.2.2,0,0,1,.19.22V76.35A.2.2,0,0,1,160.48,76.56Z"/>
        <path class="c" d="M155.1,76.56h0a.2.2,0,0,1-.19-.21v-2.1a.21.21,0,0,1,.2-.22h0a.21.21,0,0,1,.19.22v2.1A.2.2,0,0,1,155.1,76.56Z"/>
        <path class="c" d="M156.67,76.56h0a.2.2,0,0,1-.2-.21v-2.1a.2.2,0,0,1,.19-.22h0a.2.2,0,0,1,.19.22v2.1A.2.2,0,0,1,156.67,76.56Z"/>
        <path class="c" d="M158.36,70.53l-.79-2.08a.21.21,0,0,0-.18-.13h-3a.19.19,0,0,0-.18.14l-.77,2.07a.18.18,0,0,1-.25.12h0a.21.21,0,0,1-.1-.28l.87-2.35a.19.19,0,0,1,.17-.13h3.54a.19.19,0,0,1,.18.13l.89,2.34a.22.22,0,0,1-.1.29h0A.18.18,0,0,1,158.36,70.53Z"/>
        <path class="c" d="M158.91,74.25H153a.21.21,0,0,1-.18-.28l1.51-5.06a.19.19,0,0,1,.18-.14h2.59a.19.19,0,0,1,.17.13L159.09,74A.21.21,0,0,1,158.91,74.25Zm-5.6-.44h5.31L157,69.2h-2.31Z"/>
        <path class="c" d="M155.89,67.4A1.45,1.45,0,1,1,157.18,66,1.38,1.38,0,0,1,155.89,67.4Zm0-2.45a1,1,0,1,0,.9,1A1,1,0,0,0,155.89,65Z"/>
        <path class="c" d="M164.12,76.57h0a.21.21,0,0,1-.19-.22v-2.1a.2.2,0,0,1,.19-.22h0a.2.2,0,0,1,.19.22v2.1A.21.21,0,0,1,164.12,76.57Z"/>
        <path class="c" d="M165.69,76.57h0a.2.2,0,0,1-.19-.22v-2.1a.21.21,0,0,1,.19-.22h0a.21.21,0,0,1,.2.22v2.1A.2.2,0,0,1,165.69,76.57Z"/>
        <path class="c" d="M167.38,70.54l-.79-2.08a.2.2,0,0,0-.18-.14h-3a.2.2,0,0,0-.18.14l-.77,2.07a.19.19,0,0,1-.26.12h0a.22.22,0,0,1-.1-.28L163,68a.19.19,0,0,1,.18-.13h3.54a.19.19,0,0,1,.17.13l.9,2.35a.22.22,0,0,1-.11.28h0A.18.18,0,0,1,167.38,70.54Z"/>
        <path class="c" d="M166.18,74.25h-2.52a.23.23,0,0,1-.22-.24V69a.22.22,0,0,1,.21-.24h2.54a.22.22,0,0,1,.21.24v5A.23.23,0,0,1,166.18,74.25Zm-2.35-.43H166V69.2h-2.19Z"/>
        <path class="c" d="M164.91,67.4A1.45,1.45,0,1,1,166.2,66,1.38,1.38,0,0,1,164.91,67.4Zm0-2.45a1,1,0,1,0,.9,1A1,1,0,0,0,164.91,65Z"/>
      </g>
      <path class="d" d="M87.41,4.55l-87,.22L1.61,256.56l20.88-.05"/>
      <path class="d" d="M87.6,44,87.41,4.55"/>
      <path class="d" d="M113.31,40.8l-25.73.06"/>
      <path class="d" d="M88.38,202.24,87.67,58.75"/>
      <path class="d" d="M113.31,40.8l.22,46.37"/>
      <path class="d" d="M113.53,87.17l-25.72.07"/>
      <path class="d" d="M22.49,256.5l-.41-84.25"/>
      <path class="d" d="M88.37,202.24l-66.14.16"/>
      <path class="e" d="M33.69,175l54.56-.14"/>
      <path class="e" d="M22.31,175l6.61,0"/>
      <path class="e" d="M22,160.47,21.79,114"/>
      <path class="e" d="M21.74,107.52l-.16-37.83"/>
      <path class="e" d="M21.54,62.84l0-3.92"/>
      <path class="e" d="M21.42,38.79,21.25,4.72"/>
      <path class="e" d="M35.8,38.75,35.64,4.68"/>
      <path class="e" d="M56.13,38.7,56,4.63"/>
      <path class="e" d="M69.91,24.62l0-9.34"/>
      <path class="e" d="M70,38.67,70,31"/>
      <path class="e" d="M87.85,96.2l-66,.16"/>
      <path class="e" d="M22,130.66,88,130.49"/>
      <path class="e" d="M40.25,58.88l.19,37.4"/>
      <path class="e" d="M63.53,58.82l.18,37.41"/>
      <path class="e" d="M46.6,58.85l-25.06.07"/>
      <path class="e" d="M72.39,58.79l-19.27.05"/>
      <path class="e" d="M87.68,58.75l-8.33,0"/>
      <path class="e" d="M66.69,38.68l20.93,0"/>
      <path class="e" d="M67,15.16l20.6-.05"/>
      <path class="e" d="M56.05,15.13l5.62,0"/>
      <path class="e" d="M49.2,38.72l9.72,0"/>
      <path class="e" d="M31.24,38.77l11,0"/>
      <path class="e" d="M15.28,38.81l10.45,0"/>
      <path class="e" d="M.54,38.84l8.23,0"/>
      <polygon class="f" points="20.22 254.45 3.41 254.74 2.25 40.56 57.61 40.56 57.61 16.65 68.05 16.65 68.05 40.99 85.22 40.77 85.22 44.03 111.52 43.82 111.96 85.12 89.78 85.34 89.57 56.86 19.79 57.08 20.01 159.46 38.92 159.46 38.92 172.72 20.22 172.72 20.22 254.45"/>
      <path class="e" d="M15.2,23.55l8.76,0"/>
      <path class="e" d="M33.86,23.51h1.75"/>
      <path class="e" d="M40.6,130.61l.14,27.91"/>
      <path class="e" d="M40.78,164.46l0,10.48"/>
      <path class="e" d="M22,157.26l6.24,0"/>
      <path class="e" d="M33.26,157.23l7.47,0"/>
      <g>
        <path class="e" d="M1.75,252.47v-2l10.12,0v2Z"/>
        <path class="e" d="M1.74,250.49v-2l10.12,0v2Z"/>
        <path class="e" d="M1.73,248.51v-2l10.11,0v2Z"/>
        <path class="e" d="M1.73,246.53v-2l10.11,0v2Z"/>
        <path class="e" d="M1.72,244.55v-2l10.11,0v2Z"/>
        <path class="e" d="M1.71,242.57v-2l10.11,0v2Z"/>
        <path class="e" d="M1.7,240.59v-2l10.11,0v2Z"/>
        <path class="e" d="M1.69,238.61v-2l10.11,0v2Z"/>
        <path class="e" d="M11.87,252.44v-2l10.11,0v2Z"/>
        <path class="e" d="M11.86,250.46v-2l10.11,0v2Z"/>
        <path class="e" d="M11.85,248.48v-2l10.11,0v2Z"/>
        <path class="e" d="M11.84,246.5v-2l10.11,0v2Z"/>
        <path class="e" d="M11.83,244.53v-2l10.11,0v2Z"/>
        <path class="e" d="M11.82,242.54v-2l10.11,0v2Z"/>
        <path class="e" d="M11.81,240.57v-2l10.12,0v2Z"/>
        <path class="e" d="M11.8,238.59v-2l10.12,0v2Z"/>
      </g>
      <g>
        <path class="e" d="M87.78,79.89v-2l12.54,0v2Z"/>
        <path class="e" d="M87.77,77.91v-2l12.54,0v2Z"/>
        <path class="e" d="M87.76,75.93V74l12.53,0v2Z"/>
        <path class="e" d="M87.76,74V72l12.53,0v2Z"/>
        <path class="e" d="M87.79,72V70l12.53,0v2Z"/>
        <path class="e" d="M87.78,70V68l12.53,0v2Z"/>
        <path class="e" d="M87.77,68V66l12.54,0v2Z"/>
        <path class="e" d="M87.76,66v-2l12.54,0v2Z"/>
        <path class="e" d="M100.32,79.86v-2l12.53,0v2Z"/>
        <path class="e" d="M100.31,77.88v-2l12.53,0v2Z"/>
        <path class="e" d="M100.3,75.9v-2l12.54,0v2Z"/>
        <path class="e" d="M100.29,73.92v-2l12.54,0v2Z"/>
        <path class="e" d="M100.32,71.94V70l12.54,0v2Z"/>
        <path class="e" d="M100.31,70V68l12.54,0v2Z"/>
        <path class="e" d="M100.3,68V66l12.53,0v2Z"/>
        <path class="e" d="M100.3,66V64l12.53,0v2Z"/>
      </g>
      <path d="M64,16.18a10,10,0,0,1-.7,1.39.4.4,0,0,1-.29.2.19.19,0,0,1-.2-.18.76.76,0,0,1,0-.21,2.09,2.09,0,0,1,.17-.37,13.47,13.47,0,0,0,.72-1.48,2,2,0,0,1,.37-.58.14.14,0,0,1,.24,0,.25.25,0,0,1,0,.07,22.28,22.28,0,0,0,1.24,2,1.13,1.13,0,0,1,.15.57.12.12,0,0,1-.12.14.43.43,0,0,1-.37-.16,3.44,3.44,0,0,1-.4-.62l-.29-.49s0,0-.07,0a.08.08,0,0,0,0,.06,1.14,1.14,0,0,0,0,.26,8.77,8.77,0,0,1,.1,1.15l.06,1.88a.82.82,0,0,1-.07.49c0,.07,0,.2-.18.18a.36.36,0,0,1-.31-.21l0-.12a3.75,3.75,0,0,1,0-.47c0-.47,0-.94,0-1.4s0-1,0-1.45c0-.14,0-.28,0-.42a.16.16,0,0,0-.09-.18h0Z"/>
      <path d="M45.05,39.66a10,10,0,0,1-.69,1.39.37.37,0,0,1-.29.19.18.18,0,0,1-.2-.17.49.49,0,0,1,0-.21,1.8,1.8,0,0,1,.16-.38A12.57,12.57,0,0,0,44.79,39a1.72,1.72,0,0,1,.36-.58.15.15,0,0,1,.25,0s0,0,0,.08a20.65,20.65,0,0,0,1.23,1.95,1.33,1.33,0,0,1,.16.58.12.12,0,0,1-.12.13.41.41,0,0,1-.38-.15,3.73,3.73,0,0,1-.4-.63c-.09-.16-.19-.32-.28-.49,0,0,0,0-.07,0a.08.08,0,0,0,0,.06,1.06,1.06,0,0,0,0,.25,7.55,7.55,0,0,1,.09,1.16c0,.62.05,1.25.07,1.87a.94.94,0,0,1-.07.5c0,.07,0,.2-.19.18a.38.38,0,0,1-.3-.21.56.56,0,0,1,0-.12,4,4,0,0,1-.06-.47c0-.47,0-.94,0-1.41s0-1,0-1.44a3,3,0,0,1,0-.42c0-.08,0-.14-.09-.18h0Z"/>
      <path d="M28.53,39.51a8.61,8.61,0,0,1-.7,1.39.39.39,0,0,1-.28.2.19.19,0,0,1-.2-.18.51.51,0,0,1,0-.21,2,2,0,0,1,.16-.37c.27-.48.51-1,.73-1.47a1.87,1.87,0,0,1,.36-.59.14.14,0,0,1,.24,0l.05.07a22.17,22.17,0,0,0,1.23,2,1.29,1.29,0,0,1,.16.57.13.13,0,0,1-.13.14.44.44,0,0,1-.37-.16,4.09,4.09,0,0,1-.4-.62c-.09-.17-.19-.33-.28-.49a.11.11,0,0,0-.07,0,.08.08,0,0,0,0,.06,1.1,1.1,0,0,0,0,.26,7.43,7.43,0,0,1,.09,1.15c0,.63.05,1.25.07,1.88a.91.91,0,0,1-.07.49c-.05.08-.05.2-.19.18a.36.36,0,0,1-.3-.21.56.56,0,0,1,0-.12,3.78,3.78,0,0,1-.06-.47c0-.47,0-.93,0-1.4s0-1,0-1.45a3,3,0,0,1,0-.42.19.19,0,0,0-.09-.18h0Z"/>
      <path d="M11.88,39.5a9,9,0,0,1-.7,1.39.39.39,0,0,1-.29.19.18.18,0,0,1-.2-.18,1.2,1.2,0,0,1,0-.2,2.59,2.59,0,0,1,.17-.38,12.51,12.51,0,0,0,.72-1.47,1.75,1.75,0,0,1,.37-.58.14.14,0,0,1,.24,0l0,.08a22,22,0,0,0,1.23,2,1.19,1.19,0,0,1,.15.58.11.11,0,0,1-.12.13.41.41,0,0,1-.37-.16,2.86,2.86,0,0,1-.4-.62l-.29-.49s-.05,0-.06,0a.08.08,0,0,0,0,.06,2.09,2.09,0,0,0,0,.25,6.46,6.46,0,0,1,.1,1.15c0,.63,0,1.26.07,1.88a.89.89,0,0,1-.08.49c0,.08-.05.21-.18.18a.34.34,0,0,1-.3-.2.28.28,0,0,1,0-.13,2.42,2.42,0,0,1-.06-.46c0-.47,0-.94,0-1.41s0-1,0-1.44c0-.14,0-.28,0-.42a.16.16,0,0,0-.08-.18h0Z"/>
      <path d="M50.09,58.26a9.38,9.38,0,0,1,.8-1.33.4.4,0,0,1,.31-.18.19.19,0,0,1,.18.2,1.18,1.18,0,0,1,0,.2,2.53,2.53,0,0,1-.2.36,14.09,14.09,0,0,0-.83,1.41,1.93,1.93,0,0,1-.41.56.14.14,0,0,1-.24,0l0-.08a22.23,22.23,0,0,0-1.08-2,1.16,1.16,0,0,1-.11-.58.12.12,0,0,1,.13-.13.44.44,0,0,1,.36.19,3.13,3.13,0,0,1,.35.65l.25.51s0,0,.06,0,.05,0,.05-.06a2.09,2.09,0,0,0,0-.25,9,9,0,0,1,0-1.16c0-.62.05-1.25.08-1.88a.87.87,0,0,1,.11-.48c0-.07.07-.2.2-.17s.24.09.28.23a.31.31,0,0,1,0,.13,3.83,3.83,0,0,1,0,.47c0,.47-.07.93-.13,1.4s-.11.95-.14,1.44a2.9,2.9,0,0,1-.06.41.17.17,0,0,0,.07.19h0Z"/>
      <path d="M76.18,57.83a9.49,9.49,0,0,1,.8-1.34.4.4,0,0,1,.3-.17.18.18,0,0,1,.18.19.52.52,0,0,1,0,.21c-.06.12-.12.25-.19.36a12.48,12.48,0,0,0-.84,1.41A1.72,1.72,0,0,1,76,59a.14.14,0,0,1-.24,0l0-.08a21,21,0,0,0-1.08-2,1.35,1.35,0,0,1-.11-.59.13.13,0,0,1,.14-.12.4.4,0,0,1,.35.18,4.13,4.13,0,0,1,.36.65q.12.27.24.51a.07.07,0,0,0,.07,0s0,0,0,0a1.13,1.13,0,0,0,0-.26,6.32,6.32,0,0,1,0-1.15c0-.63.05-1.25.08-1.88a.76.76,0,0,1,.11-.49c0-.07.06-.2.19-.16a.36.36,0,0,1,.29.23.53.53,0,0,1,0,.12,3.85,3.85,0,0,1,0,.48c0,.46-.07.93-.12,1.39s-.12,1-.14,1.44c0,.14,0,.28-.06.42a.16.16,0,0,0,.07.18h0Z"/>
      <path d="M88.78,50.1a9.49,9.49,0,0,1-1.34-.8.36.36,0,0,1-.17-.3.18.18,0,0,1,.19-.18.45.45,0,0,1,.2,0,3,3,0,0,1,.36.19,15.48,15.48,0,0,0,1.42.83,1.62,1.62,0,0,1,.56.41c.08.09.06.17,0,.24l-.08,0a22.14,22.14,0,0,0-2,1.09,1.19,1.19,0,0,1-.58.12.13.13,0,0,1-.13-.13.4.4,0,0,1,.18-.36,4.13,4.13,0,0,1,.65-.36l.51-.25s0-.05,0-.06,0,0-.06,0a2.09,2.09,0,0,0-.25,0,6.42,6.42,0,0,1-1.16,0l-1.87-.06a.91.91,0,0,1-.49-.11c-.07,0-.2-.06-.17-.2a.36.36,0,0,1,.23-.28.28.28,0,0,1,.13,0,2.42,2.42,0,0,1,.47,0l1.4.12c.47.05,1,.11,1.43.13a2.83,2.83,0,0,1,.42.06.17.17,0,0,0,.19-.08v0Z"/>
      <path d="M21,65.75a9.49,9.49,0,0,1-1.34-.8.36.36,0,0,1-.17-.3.18.18,0,0,1,.19-.18.45.45,0,0,1,.2,0,3,3,0,0,1,.36.19,13.48,13.48,0,0,0,1.42.83,1.72,1.72,0,0,1,.56.41.14.14,0,0,1,0,.24l-.08,0a19,19,0,0,0-2,1.1,1.33,1.33,0,0,1-.58.11.13.13,0,0,1-.13-.13.4.4,0,0,1,.18-.36,4.13,4.13,0,0,1,.65-.36l.51-.25s0,0,0-.06,0-.05-.06-.05h-.25a7.49,7.49,0,0,1-1.16,0l-1.88-.07a.89.89,0,0,1-.48-.11c-.07,0-.2-.06-.17-.19a.36.36,0,0,1,.23-.29.28.28,0,0,1,.13,0,2.42,2.42,0,0,1,.47,0c.46,0,.93.07,1.39.12s1,.11,1.44.13a3,3,0,0,1,.42.06.17.17,0,0,0,.19-.08v0Z"/>
      <path d="M21.25,110.67a8.57,8.57,0,0,1-1.34-.79.38.38,0,0,1-.17-.3.18.18,0,0,1,.19-.19l.2,0a2.08,2.08,0,0,1,.36.2,13.4,13.4,0,0,0,1.42.82,2.07,2.07,0,0,1,.56.41.14.14,0,0,1,0,.24l-.08,0a20.92,20.92,0,0,0-2,1.09,1.2,1.2,0,0,1-.58.11c-.08,0-.13,0-.13-.13a.43.43,0,0,1,.18-.36,4.13,4.13,0,0,1,.65-.36l.51-.25s0,0,0-.06a.08.08,0,0,0-.06,0,1,1,0,0,0-.25,0,9,9,0,0,1-1.16,0l-1.88-.07a.8.8,0,0,1-.48-.11c-.07,0-.2-.06-.17-.19a.38.38,0,0,1,.23-.29.5.5,0,0,1,.13,0,3.62,3.62,0,0,1,.47,0c.46,0,.93.06,1.39.11s1,.11,1.44.13c.14,0,.28,0,.42.06a.18.18,0,0,0,.19-.07v0Z"/>
      <path d="M40.23,161.39a8.48,8.48,0,0,1-1.33-.79.39.39,0,0,1-.18-.3.19.19,0,0,1,.19-.19l.21,0a2.53,2.53,0,0,1,.36.2,11.66,11.66,0,0,0,1.42.82,1.88,1.88,0,0,1,.55.41.14.14,0,0,1,0,.24l-.08,0c-.7.32-1.37.7-2,1.09a1.16,1.16,0,0,1-.58.11c-.08,0-.13-.05-.13-.13a.44.44,0,0,1,.19-.36,3.13,3.13,0,0,1,.65-.35l.5-.25a.07.07,0,0,0,0-.07s0,0-.05,0a1.13,1.13,0,0,0-.26,0,8.84,8.84,0,0,1-1.15,0l-1.88-.07a.9.9,0,0,1-.49-.1c-.07-.06-.2-.07-.16-.2a.36.36,0,0,1,.22-.29l.13,0a3.77,3.77,0,0,1,.47,0c.47,0,.94.06,1.4.11s1,.11,1.44.13c.14,0,.28,0,.42.06a.16.16,0,0,0,.18-.07v0Z"/>
      <path d="M30.15,157.77a8.61,8.61,0,0,1-.78,1.35.4.4,0,0,1-.3.18.18.18,0,0,1-.18-.19.49.49,0,0,1,0-.21,2.42,2.42,0,0,1,.18-.36,12.6,12.6,0,0,0,.82-1.43,1.85,1.85,0,0,1,.4-.56.14.14,0,0,1,.24,0l0,.08a22.15,22.15,0,0,0,1.11,2,1.17,1.17,0,0,1,.12.58.12.12,0,0,1-.13.13.42.42,0,0,1-.36-.18,3.21,3.21,0,0,1-.37-.65c-.08-.17-.16-.33-.25-.5a.07.07,0,0,0-.07,0,.07.07,0,0,0,0,.06,2.09,2.09,0,0,0,0,.25,7.49,7.49,0,0,1,0,1.16c0,.62,0,1.25,0,1.87a.91.91,0,0,1-.11.49c0,.07-.06.2-.19.17a.36.36,0,0,1-.29-.22.35.35,0,0,1,0-.13,3.83,3.83,0,0,1,0-.47c0-.47.05-.94.1-1.4s.1-1,.12-1.44a3,3,0,0,1,.06-.42.17.17,0,0,0-.08-.18h0Z"/>
      <path d="M31.9,174.22a9.58,9.58,0,0,1,.69-1.4.37.37,0,0,1,.29-.19.18.18,0,0,1,.2.17.49.49,0,0,1,0,.21,1.53,1.53,0,0,1-.16.37,13.47,13.47,0,0,0-.72,1.48,1.72,1.72,0,0,1-.36.58.15.15,0,0,1-.25,0l0-.07a20.74,20.74,0,0,0-1.24-1.95,1.33,1.33,0,0,1-.16-.58.13.13,0,0,1,.12-.14.44.44,0,0,1,.38.16,4.09,4.09,0,0,1,.4.62c.09.17.19.33.29.49a.06.06,0,0,0,.07,0s0,0,0-.05a2.17,2.17,0,0,0,0-.26,6.38,6.38,0,0,1-.1-1.15c0-.63-.06-1.25-.08-1.88a.91.91,0,0,1,.07-.49c.05-.08.05-.2.19-.18a.37.37,0,0,1,.3.2.65.65,0,0,1,0,.13,3.55,3.55,0,0,1,.06.47c0,.46,0,.93,0,1.4s0,1,0,1.44c0,.14,0,.28,0,.42a.15.15,0,0,0,.09.18h0Z"/>
      <path d="M11.38,232.83a8.61,8.61,0,0,1,.78-1.35.42.42,0,0,1,.3-.18.2.2,0,0,1,.19.19,1.3,1.3,0,0,1,0,.21c-.06.12-.12.25-.19.36a14.33,14.33,0,0,0-.82,1.43,1.85,1.85,0,0,1-.4.56.14.14,0,0,1-.24,0l0-.08a20,20,0,0,0-1.11-2,1.29,1.29,0,0,1-.12-.58.13.13,0,0,1,.13-.13.4.4,0,0,1,.36.18,3.21,3.21,0,0,1,.37.65c.08.17.16.34.25.5a.07.07,0,0,0,.07,0s0,0,0-.06a2.09,2.09,0,0,0,0-.25,7.49,7.49,0,0,1,0-1.16c0-.62,0-1.25,0-1.87a1,1,0,0,1,.1-.49c.05-.07.07-.2.2-.17a.36.36,0,0,1,.29.23.53.53,0,0,1,0,.12,3.83,3.83,0,0,1,0,.47c0,.47-.05.94-.1,1.4s-.1,1-.12,1.44c0,.14,0,.28,0,.42a.16.16,0,0,0,.07.18h0Z"/>
      <path d="M69.07,27.92a9,9,0,0,1-1.4-.67.4.4,0,0,1-.2-.29.18.18,0,0,1,.17-.2.49.49,0,0,1,.21,0,1.8,1.8,0,0,1,.38.16,13.33,13.33,0,0,0,1.48.7,1.87,1.87,0,0,1,.59.36.14.14,0,0,1,0,.24l-.08.05a18.79,18.79,0,0,0-1.93,1.26,1.33,1.33,0,0,1-.58.16.13.13,0,0,1-.14-.12.44.44,0,0,1,.16-.38,4.33,4.33,0,0,1,.61-.41c.17-.09.33-.19.49-.29a.06.06,0,0,0,0-.07s0,0-.06,0a1.06,1.06,0,0,0-.25,0,9,9,0,0,1-1.15.11l-1.88.09a.82.82,0,0,1-.49-.07c-.08,0-.21,0-.18-.18a.35.35,0,0,1,.2-.3.28.28,0,0,1,.12,0,3.81,3.81,0,0,1,.47-.07c.47,0,.94,0,1.4,0s1,0,1.45,0a3,3,0,0,1,.42,0,.16.16,0,0,0,.18-.09v0Z"/>
      <g>
        <path class="g" d="M47.36,190.37a1.92,1.92,0,0,0,1,.29c.78,0,1-.5,1-.87,0-.63-.57-.9-1.16-.91h-.34v-.46h.34c.44,0,1-.22,1-.76,0-.36-.23-.68-.79-.68a1.63,1.63,0,0,0-.9.3l-.16-.45a2.15,2.15,0,0,1,1.18-.34c.89,0,1.29.53,1.29,1.08a1.12,1.12,0,0,1-.84,1.06h0a1.17,1.17,0,0,1,1,1.17c0,.72-.56,1.35-1.65,1.34a2.25,2.25,0,0,1-1.17-.31Z"/>
        <path class="g" d="M52.66,191.09v-1.23H50.57v-.41l2-2.87h.66v2.81h.63v.48h-.63v1.23Zm0-1.71v-1.5c0-.24,0-.48,0-.71h0c-.14.26-.25.46-.37.66l-1.11,1.53v0Z"/>
        <path class="g" d="M54.28,190a1.29,1.29,0,0,1,.9-1.21v0a1.1,1.1,0,0,1-.71-1,1.27,1.27,0,0,1,1.4-1.2,1.17,1.17,0,0,1,1.31,1.12,1.16,1.16,0,0,1-.75,1.05v0a1.26,1.26,0,0,1,.91,1.17,1.4,1.4,0,0,1-1.54,1.31C54.84,191.17,54.28,190.61,54.28,190Zm2.43,0c0-.55-.38-.81-1-1a1,1,0,0,0-.82.93.83.83,0,0,0,.9.86A.81.81,0,0,0,56.71,189.93ZM55,187.67c0,.45.33.69.85.83a.88.88,0,0,0,.69-.81.7.7,0,0,0-.76-.74A.71.71,0,0,0,55,187.67Z"/>
      </g>
      <g>
        <path class="g" d="M57.79,153.85a2,2,0,0,0,1,.29c.79,0,1-.49,1-.87,0-.63-.58-.9-1.17-.91h-.34v-.46h.34c.45,0,1-.23,1-.76,0-.37-.22-.69-.79-.69a1.63,1.63,0,0,0-.9.3l-.16-.45A2.2,2.2,0,0,1,59,150c.89,0,1.29.53,1.29,1.08a1.11,1.11,0,0,1-.84,1.06h0a1.19,1.19,0,0,1,1,1.17c0,.72-.57,1.35-1.65,1.35a2.5,2.5,0,0,1-1.18-.31Z"/>
        <path class="g" d="M63.09,154.57v-1.23H61v-.41l2-2.87h.66v2.81h.64v.48h-.64v1.23Zm0-1.71v-1.5c0-.24,0-.47,0-.71h0l-.38.67-1.11,1.53H63.1Z"/>
        <path class="g" d="M67.35,150.5a2.7,2.7,0,0,0-.46,0,1.84,1.84,0,0,0-1.57,1.6h0a1.38,1.38,0,0,1,2.45.94,1.51,1.51,0,0,1-1.51,1.59c-1,0-1.59-.76-1.59-1.93a2.88,2.88,0,0,1,.77-2,2.41,2.41,0,0,1,1.45-.66,2.73,2.73,0,0,1,.44,0Zm-.18,2.61a.92.92,0,0,0-.93-1,1,1,0,0,0-.87.55.54.54,0,0,0-.07.27c0,.75.35,1.29,1,1.3S67.17,153.75,67.17,153.11Z"/>
      </g>
      <g>
        <path class="g" d="M24.75,145.16a2.09,2.09,0,0,0,1,.29c.79,0,1-.5,1-.87,0-.64-.58-.91-1.17-.91h-.34v-.46h.34c.45,0,1-.22,1-.76,0-.36-.22-.68-.79-.68a1.71,1.71,0,0,0-.9.29l-.16-.44a2.12,2.12,0,0,1,1.18-.34c.89,0,1.29.53,1.29,1.08a1.12,1.12,0,0,1-.84,1.06h0a1.18,1.18,0,0,1,1,1.16c0,.72-.57,1.35-1.65,1.35a2.22,2.22,0,0,1-1.17-.31Z"/>
        <path class="g" d="M30.05,145.88v-1.23H28v-.4l2-2.88h.66v2.8h.63v.48h-.64v1.23Zm0-1.71v-1.51c0-.23,0-.47,0-.7h0c-.14.26-.26.45-.38.66l-1.11,1.53h1.48Z"/>
        <path class="g" d="M34.67,141.38v.4l-2,4.11h-.63l2-4v0H31.82v-.51Z"/>
      </g>
      <g>
        <path class="g" d="M51.71,115.6a2.16,2.16,0,0,0,1,.29c.78,0,1-.5,1-.88,0-.63-.57-.9-1.16-.9h-.34v-.46h.34c.44,0,1-.23,1-.76,0-.36-.23-.68-.79-.68a1.55,1.55,0,0,0-.9.29l-.16-.44a2.07,2.07,0,0,1,1.18-.35c.89,0,1.29.53,1.29,1.08a1.11,1.11,0,0,1-.84,1.06v0a1.16,1.16,0,0,1,1,1.16c0,.72-.56,1.35-1.65,1.35a2.25,2.25,0,0,1-1.17-.31Z"/>
        <path class="g" d="M57,116.32v-1.23H54.92v-.4l2-2.88h.66v2.81h.63v.48h-.63v1.23Zm0-1.71V113.1c0-.24,0-.47,0-.71h0c-.14.27-.25.46-.37.67l-1.11,1.53H57Z"/>
        <path class="g" d="M60.57,116.33V115.1H58.48v-.4l2-2.88h.66v2.8h.63v.48h-.63v1.23Zm0-1.71v-1.51c0-.23,0-.47,0-.71h0c-.14.27-.25.46-.38.67l-1.11,1.53h1.48Z"/>
      </g>
      <g>
        <path class="g" d="M68.23,78.21a2,2,0,0,0,1,.28c.78,0,1-.49,1-.87,0-.63-.57-.9-1.16-.9h-.34v-.46h.34c.44,0,1-.23,1-.76,0-.36-.23-.68-.79-.68a1.61,1.61,0,0,0-.91.29l-.15-.44a2.07,2.07,0,0,1,1.18-.35c.89,0,1.29.53,1.28,1.08a1.12,1.12,0,0,1-.83,1.06v0a1.18,1.18,0,0,1,1,1.16c0,.72-.56,1.35-1.65,1.35a2.35,2.35,0,0,1-1.17-.31Z"/>
        <path class="g" d="M71.79,78.22a2.12,2.12,0,0,0,1,.29c.78,0,1-.5,1-.88,0-.63-.57-.9-1.16-.9h-.34v-.46h.34c.44,0,1-.23,1-.76,0-.36-.23-.68-.79-.68a1.61,1.61,0,0,0-.91.29l-.15-.44A2.07,2.07,0,0,1,73,74.33c.89,0,1.29.54,1.28,1.08a1.12,1.12,0,0,1-.83,1.06v0a1.18,1.18,0,0,1,1,1.16c0,.72-.57,1.35-1.65,1.35a2.25,2.25,0,0,1-1.17-.31Z"/>
        <path class="g" d="M75.15,77.78a1.28,1.28,0,0,1,.89-1.2v0a1.12,1.12,0,0,1-.71-1,1.25,1.25,0,0,1,1.4-1.19,1.12,1.12,0,0,1,.56,2.16v0a1.24,1.24,0,0,1,.9,1.17A1.38,1.38,0,0,1,76.66,79C75.71,79,75.14,78.44,75.15,77.78Zm2.43,0c0-.54-.38-.81-1-1a1,1,0,0,0-.82.92.91.91,0,0,0,1.81.06ZM75.9,75.5c0,.45.34.7.86.84a.89.89,0,0,0,.69-.82.7.7,0,0,0-.76-.74A.72.72,0,0,0,75.9,75.5Z"/>
      </g>
      <g>
        <path class="g" d="M66.05,11.25a2,2,0,0,0,1,.29c.79,0,1-.49,1-.87,0-.63-.58-.9-1.17-.91h-.34V9.31h.34c.44,0,1-.23,1-.76,0-.36-.22-.69-.79-.69a1.66,1.66,0,0,0-.9.3l-.16-.45a2.2,2.2,0,0,1,1.18-.34c.89,0,1.29.53,1.29,1.08a1.12,1.12,0,0,1-.83,1.06h0a1.19,1.19,0,0,1,1,1.17c0,.72-.57,1.35-1.65,1.35a2.42,2.42,0,0,1-1.17-.31Z"/>
        <path class="g" d="M71.36,12V10.74h-2.1v-.41l2-2.87H72v2.81h.63v.48h-.63V12Zm0-1.71V8.76c0-.24,0-.47,0-.71h0c-.14.26-.25.46-.38.67l-1.11,1.53h1.48Z"/>
        <path class="g" d="M73.17,11.28a2.2,2.2,0,0,0,1,.29c.79,0,1-.5,1-.88,0-.63-.58-.9-1.17-.9h-.34V9.33H74c.45,0,1-.23,1-.76,0-.36-.22-.68-.79-.68a1.55,1.55,0,0,0-.9.29l-.16-.44a2.12,2.12,0,0,1,1.18-.35c.89,0,1.29.53,1.29,1.08a1.11,1.11,0,0,1-.84,1.06v0a1.18,1.18,0,0,1,1,1.16c0,.72-.57,1.35-1.65,1.35A2.22,2.22,0,0,1,73,11.75Z"/>
      </g>
      <g>
        <path class="g" d="M39.64,34.41a2.1,2.1,0,0,0,1,.28c.79,0,1-.49,1-.87,0-.63-.58-.9-1.17-.9h-.34v-.46h.34c.45,0,1-.23,1-.76,0-.36-.22-.68-.79-.69a1.66,1.66,0,0,0-.9.3l-.16-.44a2.12,2.12,0,0,1,1.18-.35c.89,0,1.29.53,1.29,1.08a1.11,1.11,0,0,1-.84,1.06v0a1.18,1.18,0,0,1,1,1.16c0,.72-.57,1.35-1.65,1.35a2.32,2.32,0,0,1-1.17-.31Z"/>
        <path class="g" d="M44.94,35.12V33.9h-2.1v-.4l2-2.88h.67v2.81h.63v.48h-.64v1.23Zm0-1.7V31.91c0-.24,0-.47,0-.71h0c-.14.27-.25.46-.38.67L43.47,33.4H45Z"/>
        <path class="g" d="M49.32,31.14H47.6l-.18,1.16.37,0a1.86,1.86,0,0,1,1,.24,1.27,1.27,0,0,1,.64,1.16,1.56,1.56,0,0,1-1.68,1.54,2.24,2.24,0,0,1-1.13-.28l.16-.47a2,2,0,0,0,1,.26,1,1,0,0,0,1.08-1c0-.58-.4-1-1.3-1a4.81,4.81,0,0,0-.62,0l.29-2.16h2.16Z"/>
      </g>
      <g>
        <path class="g" d="M44.75,77.78a2.1,2.1,0,0,0,1,.28c.79,0,1-.49,1-.87,0-.63-.57-.9-1.16-.9h-.34v-.45h.34c.45,0,1-.23,1-.76,0-.36-.23-.68-.79-.69a1.63,1.63,0,0,0-.9.3l-.16-.44A2.12,2.12,0,0,1,46,73.89c.89,0,1.29.53,1.29,1.08A1.11,1.11,0,0,1,46.4,76v0a1.18,1.18,0,0,1,1,1.16c0,.72-.57,1.35-1.65,1.35a2.5,2.5,0,0,1-1.18-.31Z"/>
        <path class="g" d="M50.05,78.49V77.26H48v-.4L50,74h.66v2.81h.64v.48h-.63v1.22Zm0-1.7V75.28c0-.24,0-.47,0-.71h0l-.38.67-1.11,1.53h1.48Z"/>
        <path class="g" d="M54.73,76.2c0,1.54-.58,2.38-1.58,2.38s-1.47-.83-1.48-2.32.66-2.35,1.57-2.35S54.73,74.77,54.73,76.2Zm-2.45.06c0,1.18.35,1.85.91,1.85s.93-.73.93-1.88-.28-1.84-.91-1.84S52.28,75,52.28,76.26Z"/>
      </g>
      <g>
        <path class="g" d="M25.19,77.34a2.12,2.12,0,0,0,1,.29c.79,0,1-.5,1-.88,0-.63-.58-.9-1.17-.9H25.7v-.46h.35c.44,0,1-.23,1-.76,0-.36-.22-.68-.79-.68a1.66,1.66,0,0,0-.9.29l-.16-.44a2.12,2.12,0,0,1,1.18-.35c.89,0,1.29.54,1.29,1.08a1.12,1.12,0,0,1-.83,1.06v0a1.18,1.18,0,0,1,1,1.16c0,.72-.57,1.35-1.65,1.35A2.22,2.22,0,0,1,25,77.81Z"/>
        <path class="g" d="M30.49,78.06V76.83h-2.1v-.4l2-2.88h.66v2.8h.63v.48h-.63v1.23Zm0-1.71V74.84c0-.23,0-.47,0-.71h0c-.14.27-.25.46-.38.67L29,76.33h1.48Z"/>
        <path class="g" d="M32.16,78.06v-.37l.48-.47c1.15-1.09,1.68-1.67,1.69-2.35a.82.82,0,0,0-.9-.89,1.57,1.57,0,0,0-1,.38l-.19-.43a2,2,0,0,1,1.28-.45,1.27,1.27,0,0,1,1.38,1.31c0,.84-.61,1.51-1.57,2.42l-.36.33v0h2v.51Z"/>
      </g>
      <path class="h" d="M158,91.21h8.92a.25.25,0,0,1,.25.24v5.9a.25.25,0,0,1-.25.25h-.35V100l-1.85-2.37H158a.25.25,0,0,1-.25-.25v-5.9A.25.25,0,0,1,158,91.21Z"/>
      <path class="i" d="M163.62,93.2h-8.93a.25.25,0,0,0-.24.25v5.89a.25.25,0,0,0,.24.25h.36V102l1.84-2.37h6.73a.25.25,0,0,0,.25-.25V93.45A.25.25,0,0,0,163.62,93.2Z"/>
      <g>
        <circle class="h" cx="157.63" cy="96.52" r="0.34"/>
        <circle class="h" cx="159.2" cy="96.52" r="0.34"/>
        <circle class="h" cx="160.65" cy="96.52" r="0.34"/>
      </g>
      <circle class="b" cx="45.49" cy="18.86" r="9.76"/>
      <path class="h" d="M42.94,14.27h8.73a.25.25,0,0,1,.25.24v5.78a.25.25,0,0,1-.25.24h-.34v2.32l-1.81-2.32H42.94a.25.25,0,0,1-.25-.24V14.51A.25.25,0,0,1,42.94,14.27Z"/>
      <path class="i" d="M48.43,16.22H39.69a.24.24,0,0,0-.24.24v5.78a.24.24,0,0,0,.24.24H40V24.8l1.8-2.32h6.59a.24.24,0,0,0,.24-.24V16.46A.24.24,0,0,0,48.43,16.22Z"/>
      <g>
        <circle class="h" cx="42.56" cy="19.47" r="0.33"/>
        <circle class="h" cx="44.1" cy="19.47" r="0.33"/>
        <circle class="h" cx="45.53" cy="19.47" r="0.33"/>
      </g>
      <ellipse class="b" cx="78.81" cy="24.15" rx="7.94" ry="7.84"/>
      <g>
        <path class="g" d="M73.36,36.56a2,2,0,0,0,1,.29c.78,0,1-.5,1-.87,0-.64-.57-.91-1.16-.91h-.34v-.46h.34c.44,0,1-.23,1-.76,0-.36-.23-.68-.79-.68a1.69,1.69,0,0,0-.91.29L73.38,33a2.15,2.15,0,0,1,1.18-.35c.89,0,1.29.54,1.28,1.08A1.12,1.12,0,0,1,75,34.82h0A1.18,1.18,0,0,1,76,36c0,.72-.56,1.35-1.65,1.35A2.25,2.25,0,0,1,73.19,37Z"/>
        <path class="g" d="M78.66,37.28V36.05H76.57v-.4l2-2.88h.66v2.8h.63v.48h-.63v1.23Zm0-1.71V34.06c0-.23,0-.47,0-.71h0c-.14.27-.25.46-.38.67l-1.11,1.53h1.48Z"/>
        <path class="g" d="M81.67,33.34h0l-.78.42-.12-.46,1-.53h.52l0,4.51h-.59Z"/>
      </g>
      <circle class="b" cx="17.39" cy="23.47" r="10.35"/>
      <g>
        <path class="c" d="M17.77,30.19h0a.22.22,0,0,1-.21-.23V17.44a.22.22,0,0,1,.21-.23h0a.22.22,0,0,1,.2.23V30A.22.22,0,0,1,17.77,30.19Z"/>
        <path class="c" d="M12,30.19h0a.22.22,0,0,1-.21-.23V27.72a.23.23,0,0,1,.21-.23h0a.23.23,0,0,1,.21.23V30A.22.22,0,0,1,12,30.19Z"/>
        <path class="c" d="M13.69,30.19h0a.22.22,0,0,1-.2-.23V27.72a.23.23,0,0,1,.21-.23h0a.23.23,0,0,1,.21.23V30A.22.22,0,0,1,13.69,30.19Z"/>
        <path class="c" d="M15.5,23.76l-.84-2.22a.21.21,0,0,0-.2-.14H11.24a.19.19,0,0,0-.19.14l-.83,2.22a.2.2,0,0,1-.27.12h0a.25.25,0,0,1-.11-.3l.93-2.5a.21.21,0,0,1,.19-.15h3.78a.21.21,0,0,1,.19.14l1,2.51a.23.23,0,0,1-.11.3h0A.2.2,0,0,1,15.5,23.76Z"/>
        <path class="c" d="M16.09,27.72H9.82a.22.22,0,0,1-.19-.29L11.25,22a.19.19,0,0,1,.19-.15H14.2a.2.2,0,0,1,.18.14l1.9,5.41A.22.22,0,0,1,16.09,27.72Zm-6-.46h5.66l-1.73-4.93H11.59Z"/>
        <path class="c" d="M12.86,20.41a1.55,1.55,0,0,1,0-3.08,1.55,1.55,0,0,1,0,3.08Zm0-2.62a1.09,1.09,0,0,0,0,2.16,1.09,1.09,0,0,0,0-2.16Z"/>
        <path class="c" d="M21.66,30.2h0a.23.23,0,0,1-.21-.24V27.73a.24.24,0,0,1,.21-.24h0a.23.23,0,0,1,.21.24V30A.24.24,0,0,1,21.66,30.2Z"/>
        <path class="c" d="M23.33,30.2h0a.23.23,0,0,1-.21-.24V27.73a.23.23,0,0,1,.21-.24h0a.23.23,0,0,1,.21.24V30A.22.22,0,0,1,23.33,30.2Z"/>
        <path class="c" d="M25.13,23.76l-.84-2.22a.23.23,0,0,0-.19-.14H20.87a.21.21,0,0,0-.19.14l-.82,2.22a.2.2,0,0,1-.27.12h0a.24.24,0,0,1-.12-.3l.93-2.5a.2.2,0,0,1,.19-.14h3.78a.2.2,0,0,1,.19.14l1,2.5a.23.23,0,0,1-.11.3h0A.2.2,0,0,1,25.13,23.76Z"/>
        <path class="c" d="M23.85,27.73H21.16a.25.25,0,0,1-.23-.26l0-5.34a.25.25,0,0,1,.23-.26h2.71a.25.25,0,0,1,.23.26v5.34A.25.25,0,0,1,23.85,27.73Zm-2.51-.47h2.33V22.33H21.33Z"/>
        <path class="c" d="M22.49,20.41a1.55,1.55,0,1,1,1.38-1.54A1.47,1.47,0,0,1,22.49,20.41Zm0-2.61a1.08,1.08,0,1,0,1,1.07A1,1,0,0,0,22.49,17.8Z"/>
      </g>
      <g>
        <g>
          <path class="c" d="M165.86,122.72h-3.68a.17.17,0,0,1-.17-.17.17.17,0,0,1,.17-.16h3.68a.17.17,0,0,1,.17.16A.17.17,0,0,1,165.86,122.72Z"/>
          <path class="c" d="M165.86,123.66h-3.68a.17.17,0,0,1-.17-.16.17.17,0,0,1,.17-.17h3.68a.17.17,0,0,1,.17.17A.17.17,0,0,1,165.86,123.66Z"/>
          <path class="c" d="M165.86,124.51h-3.68a.17.17,0,0,1-.17-.17.17.17,0,0,1,.17-.16h3.68a.17.17,0,0,1,.17.16A.17.17,0,0,1,165.86,124.51Z"/>
          <path class="c" d="M167.45,119.37H155.79a.16.16,0,0,0-.16.17v1a.16.16,0,0,0,.16.16h.51V127a.17.17,0,0,0,.17.16h7.21l1.9,2.73a.16.16,0,0,0,.14.07.14.14,0,0,0,.09,0,.16.16,0,0,0,.05-.23l-1.78-2.55h2.77A.16.16,0,0,0,167,127v-6.36h.43a.17.17,0,0,0,.17-.16v-1A.17.17,0,0,0,167.45,119.37Zm-.76,7.48H156.64v-6.19h10.05Zm.59-6.52H156v-.63h11.32Z"/>
        </g>
        <g>
          <g>
            <path class="b" d="M158.66,125.48v1.1l-.26-.11-.77.69-.69.25a4.83,4.83,0,0,0-.94.43c-.6.43-.5,1.59-.44,2l8.1,0c.06-.4.17-1.47-.41-2a4.31,4.31,0,0,0-1-.52,6.13,6.13,0,0,0-.64-.25l-.69-.64-.23.11v-1.29Z"/>
            <path class="c" d="M155.6,130a.17.17,0,0,1-.19-.13c-.08-.62-.13-1.73.5-2.19a5.92,5.92,0,0,1,1-.44c.22-.09.44-.17.67-.24l.82-.73.14,0v-1l2.3-.22v1.22l.11,0,.74.68.62.25a4.19,4.19,0,0,1,1.07.54,2.35,2.35,0,0,1,.47,2.1.17.17,0,0,1-.19.13Zm2.83-3.38-.73.65h0c-.23.07-.45.15-.68.24a5.46,5.46,0,0,0-.9.41c-.48.34-.45,1.27-.4,1.76l7.84,0c.05-.45.08-1.3-.38-1.68a4.57,4.57,0,0,0-1-.5c-.2-.09-.42-.17-.63-.25h0l-.64-.59-.35.16v-1.35l-1.69.16v1.19Z"/>
          </g>
          <g>
            <polyline class="b" points="161.55 127.11 160.22 127.85 159.61 127.51 159.03 127.82 157.63 127.16"/>
            <path class="c" d="M160.11,128.25l-.5-.57-.58.57a.2.2,0,0,1-.2,0l-1.27-1,.13-.27,1.23.93.59-.53a.14.14,0,0,1,.2,0l.51.53,1.26-1,.15.27-1.3,1A.22.22,0,0,1,160.11,128.25Z"/>
          </g>
          <g>
            <polyline class="b" points="160.87 126.48 159.62 127.03 158.39 126.47"/>
            <polygon class="c" points="159.62 127.2 158.33 126.61 158.45 126.33 159.62 126.86 160.81 126.34 160.93 126.62 159.62 127.2"/>
          </g>
          <g>
            <path class="b" d="M158.47,121.81c-.13.09-.26,0-.38.06s-.17.26-.2.44a2.43,2.43,0,0,0,0,.61c0,.44,0,.7,0,1.07h0a2.77,2.77,0,0,0,.61,1.49,1.51,1.51,0,0,0,1.08.51,1.48,1.48,0,0,0,1.07-.54,2.55,2.55,0,0,0,.52-1.44,8.16,8.16,0,0,0,.06-1.27c0-.94-.06-1.06-.12-1.12-.2-.26-.61-.26-1.42-.27-.29,0-1,0-1.16.3A.32.32,0,0,1,158.47,121.81Z"/>
            <path class="c" d="M159.63,126.14a1.7,1.7,0,0,1-1.18-.55,2.94,2.94,0,0,1-.65-1.57v0c0-.33,0-.58,0-1v-.1a2.81,2.81,0,0,1,0-.65c0-.2.08-.45.29-.55a.5.5,0,0,1,.23,0c.07,0,.1,0,.13,0a.14.14,0,0,0,.05-.08v0c.13-.26.57-.39,1.3-.38s1.29,0,1.54.32c.09.11.16.27.15,1.22a7.57,7.57,0,0,1-.06,1.3,2.68,2.68,0,0,1-.56,1.52,1.56,1.56,0,0,1-1.18.58ZM158.1,124c.18.75.26,1.1.57,1.4a1.4,1.4,0,0,0,1,.47,1.31,1.31,0,0,0,1-.49,2.43,2.43,0,0,0,.48-1.36,9.31,9.31,0,0,0,.06-1.25,2.63,2.63,0,0,0-.09-1c-.16-.2-.54-.2-1.3-.21s-1,.11-1,.22a.59.59,0,0,1-.17.22h0a.57.57,0,0,1-.31.07.14.14,0,0,0-.09,0c-.07,0-.1.2-.12.32a2.79,2.79,0,0,0,0,.58v.1C158.08,123.39,158.1,123.64,158.1,124Z"/>
          </g>
          <g>
            <path class="b" d="M161.28,123.55a.61.61,0,0,1-.33-.25c-.13-.24,0-.49-.12-.65a.39.39,0,0,0-.29-.1l.05-.41a2.26,2.26,0,0,0-.38.22,2.32,2.32,0,0,0-.28.24,2.12,2.12,0,0,0-.75-.1,2.33,2.33,0,0,0-.71.14l-.22.41c-.1.18-.2.36-.31.53"/>
            <path class="c" d="M161.23,123.69a.75.75,0,0,1-.41-.32.84.84,0,0,1-.08-.42c0-.11,0-.16,0-.2a.27.27,0,0,0-.18,0h-.17l0-.3-.1.07a2.75,2.75,0,0,0-.26.22l-.06.07-.09,0a2.13,2.13,0,0,0-.71-.09,2.44,2.44,0,0,0-.6.11l-.19.36c-.1.18-.21.36-.32.54l-.26-.16c.11-.17.21-.35.31-.52l.22-.41,0-.06.06,0a2.69,2.69,0,0,1,.75-.14,2.48,2.48,0,0,1,.72.07,2,2,0,0,1,.23-.18,2.44,2.44,0,0,1,.41-.24l.25-.11-.07.53a.38.38,0,0,1,.23.13.53.53,0,0,1,.11.41.38.38,0,0,0,0,.26.44.44,0,0,0,.24.19Z"/>
          </g>
        </g>
        <path class="c" d="M158.88,130l.31-1.9H160l.26,1.9Zm.56-1.67-.2,1.37h.67l-.16-1.36Z"/>
        <path class="c" d="M160.2,128l-.54.54"/>
        <polygon class="b" points="159.57 127.53 159.17 127.97 159.59 128.39 160.04 127.97 159.57 127.53"/>
        <path class="c" d="M159.52,128.52l-.6-.56.51-.46a.26.26,0,0,1,.35,0l.44.46-.55.55A.11.11,0,0,1,159.52,128.52Zm-.19-.57.26.23.26-.23-.24-.27Z"/>
      </g>
      <g>
        <g>
          <path class="c" d="M82.74,22.16h-3a.14.14,0,0,1-.13-.14.13.13,0,0,1,.13-.14h3a.14.14,0,0,1,.14.14A.14.14,0,0,1,82.74,22.16Z"/>
          <path class="c" d="M82.74,22.94h-3a.14.14,0,0,1,0-.28h3a.14.14,0,1,1,0,.28Z"/>
          <path class="c" d="M82.74,23.64h-3a.13.13,0,0,1-.13-.14.14.14,0,0,1,.13-.14h3a.14.14,0,0,1,.14.14A.14.14,0,0,1,82.74,23.64Z"/>
          <path class="c" d="M84.06,19.38H74.4a.14.14,0,0,0-.14.14v.79a.14.14,0,0,0,.14.14h.42v5.27a.14.14,0,0,0,.14.14h6l1.58,2.26a.17.17,0,0,0,.12.06l.08,0a.14.14,0,0,0,0-.19l-1.47-2.11h2.3a.15.15,0,0,0,.14-.14V20.45h.35a.14.14,0,0,0,.14-.14v-.79A.14.14,0,0,0,84.06,19.38Zm-.63,6.2H75.1V20.45h8.33Zm.49-5.41H74.54v-.51h9.38Z"/>
        </g>
        <g>
          <g>
            <path class="b" d="M76.77,24.45v.91l-.21-.09-.64.57-.57.2a4,4,0,0,0-.78.36c-.5.36-.42,1.31-.37,1.69l6.72,0c0-.32.14-1.21-.34-1.62a4.23,4.23,0,0,0-.86-.43l-.54-.21-.57-.52-.19.08V24.29Z"/>
            <path class="c" d="M74.24,28.22a.16.16,0,0,1-.16-.11c-.07-.52-.11-1.44.42-1.81a3.62,3.62,0,0,1,.8-.37l.55-.2.68-.61.12.05v-.84l1.91-.18v1l.09,0,.61.56.52.2a4,4,0,0,1,.89.46A1.91,1.91,0,0,1,81,28.07a.14.14,0,0,1-.15.11Zm2.34-2.8L76,26h0l-.57.2a4.8,4.8,0,0,0-.75.34c-.39.28-.37,1.05-.32,1.46l6.49,0a1.66,1.66,0,0,0-.31-1.4,4,4,0,0,0-.83-.41,4.87,4.87,0,0,0-.53-.21h0l-.53-.48-.29.13V24.42l-1.4.14v1Z"/>
          </g>
          <g>
            <polyline class="b" points="79.17 25.79 78.06 26.41 77.56 26.13 77.08 26.39 75.92 25.84"/>
            <path class="c" d="M78,26.74l-.42-.47-.48.47a.18.18,0,0,1-.16,0L75.86,26l.11-.23,1,.78.49-.44a.11.11,0,0,1,.16,0l.43.44,1-.82.12.22-1.07.84A.19.19,0,0,1,78,26.74Z"/>
          </g>
          <g>
            <polyline class="b" points="78.61 25.27 77.57 25.73 76.55 25.26"/>
            <polygon class="c" points="77.57 25.87 76.5 25.38 76.6 25.15 77.57 25.59 78.56 25.16 78.66 25.39 77.57 25.87"/>
          </g>
          <g>
            <path class="b" d="M76.62,21.4c-.11.08-.22,0-.31.05s-.15.22-.17.36a1.71,1.71,0,0,0,0,.51c0,.37,0,.58,0,.89h0a2.4,2.4,0,0,0,.5,1.24,1.29,1.29,0,0,0,.89.42,1.32,1.32,0,0,0,.9-.45,2.06,2.06,0,0,0,.42-1.19A6.84,6.84,0,0,0,79,22.17c0-.78-.06-.87-.1-.93S78.35,21,77.68,21c-.24,0-.84,0-1,.25A.35.35,0,0,1,76.62,21.4Z"/>
            <path class="c" d="M77.58,25a1.39,1.39,0,0,1-1-.46,2.46,2.46,0,0,1-.54-1.29v0c0-.28,0-.48,0-.79v-.09a1.8,1.8,0,0,1,0-.54.52.52,0,0,1,.23-.45.51.51,0,0,1,.2,0h.1l0-.07v0c.11-.22.48-.32,1.08-.32s1.07,0,1.28.27c.07.09.13.23.12,1a6.22,6.22,0,0,1,0,1.08,2.25,2.25,0,0,1-.46,1.26,1.31,1.31,0,0,1-1,.48Zm-1.27-1.8a2.31,2.31,0,0,0,.47,1.17,1.19,1.19,0,0,0,.8.38,1.09,1.09,0,0,0,.8-.4,2,2,0,0,0,.4-1.13,6.82,6.82,0,0,0,0-1,2.39,2.39,0,0,0-.07-.85c-.13-.16-.45-.17-1.09-.17s-.8.09-.84.18a.49.49,0,0,1-.14.18h0a.35.35,0,0,1-.25,0h-.08s-.08.16-.1.26a2.67,2.67,0,0,0,0,.48v.09C76.3,22.71,76.31,22.92,76.31,23.19Z"/>
          </g>
          <g>
            <path class="b" d="M79,22.84a.42.42,0,0,1-.27-.2c-.11-.2,0-.41-.11-.54a.29.29,0,0,0-.24-.08l0-.34a1.79,1.79,0,0,0-.32.18,1.55,1.55,0,0,0-.23.19A2,2,0,0,0,77.2,22a1.82,1.82,0,0,0-.58.12l-.18.34c-.09.15-.17.3-.26.44"/>
            <path class="c" d="M78.9,23a.56.56,0,0,1-.33-.26.72.72,0,0,1-.07-.36c0-.08,0-.13,0-.16s-.1,0-.15,0h-.14l0-.25-.09.06-.21.18,0,.06-.08,0a1.88,1.88,0,0,0-.58-.07,2.1,2.1,0,0,0-.5.09l-.16.3c-.08.15-.17.3-.26.44l-.22-.13.26-.43.18-.34,0,0,0,0a1.9,1.9,0,0,1,.62-.12,1.94,1.94,0,0,1,.59.06,1.49,1.49,0,0,1,.2-.15,1.45,1.45,0,0,1,.34-.2l.2-.09,0,.44a.44.44,0,0,1,.19.1.44.44,0,0,1,.08.34.38.38,0,0,0,0,.22.33.33,0,0,0,.2.16Z"/>
          </g>
        </g>
        <path class="c" d="M77,28.2l.26-1.58h.67l.21,1.58Zm.46-1.38L77.26,28h.55l-.13-1.12Z"/>
        <path class="c" d="M78.05,26.51l-.44.45"/>
        <polygon class="b" points="77.53 26.14 77.2 26.51 77.55 26.85 77.92 26.51 77.53 26.14"/>
        <path class="c" d="M77.49,27,77,26.5l.42-.38a.21.21,0,0,1,.29,0l.37.38-.46.46A.09.09,0,0,1,77.49,27Zm-.16-.47.22.19.21-.19-.2-.22Z"/>
      </g>
      <path d="M256.45,7c0-1.4-.11-2.81-.07-4.22A1.94,1.94,0,0,1,258.56.71,1.39,1.39,0,0,1,259.94,2a18.61,18.61,0,0,1-.08,2.11,9.29,9.29,0,0,0,.49,3.63A1.69,1.69,0,0,0,262.13,9c.79,0,1.06-.2,1.32-1a6.8,6.8,0,0,0,.2-2.87,7.19,7.19,0,0,1,.59-3.34,2.14,2.14,0,0,1,.65-.79,1.12,1.12,0,0,1,1.73.46A6.05,6.05,0,0,1,267,4.07,22.57,22.57,0,0,1,266.72,8a1,1,0,0,0,.85,1.37,7,7,0,0,0,1.28.21c1,.07,1.51-.26,1.66-1.24a39.53,39.53,0,0,0,.41-4.2,9.72,9.72,0,0,1,.48-2.84,4.73,4.73,0,0,1,.46-.93.87.87,0,0,1,1.35-.11,3.14,3.14,0,0,1,.85,1.88c.32,2.88.78,5.72.28,8.66a24.35,24.35,0,0,0,.06,7.62,4.68,4.68,0,0,1,0,2.35,1.06,1.06,0,0,1-1.71.39,2.88,2.88,0,0,1-.73-1.66c-.21-1.47-.38-3-.57-4.44a2,2,0,0,0-2.63-1.71A1.23,1.23,0,0,0,268,14c-.44,1.41-1.26,2.68-1.11,4.28a17.24,17.24,0,0,1-.31,3.41.9.9,0,0,1-.69.72.88.88,0,0,1-.93-.31,3.43,3.43,0,0,1-1-1.82c-.2-1.3-.41-2.6-.57-3.9a10.34,10.34,0,0,0-.45-2.59c-.21-.51-.48-1-1-1.06s-1.09.41-1.39,1A5.05,5.05,0,0,0,260,16c0,1,0,1.94-.1,2.9a15.77,15.77,0,0,1-.23,1.83,1,1,0,0,1-.88.84,1.12,1.12,0,0,1-1.1-.53,6,6,0,0,1-.88-3.52c-.11-3.52-.21-7-.31-10.55Z"/>
      <path d="M214.57,12c-.69,0-1.91,0-3.12-.12-.72-.06-.92-.64-.6-1.35A2.32,2.32,0,0,1,213.06,9c1.3,0,2.59-.14,3.89-.26a.57.57,0,0,0,.44-.94c-1.28-1.6-2.73-2.95-4.92-3.09-.6,0-1.21-.06-1.82-.07a2.52,2.52,0,0,1-1.83-.86c-1.28-1.31-.94-2.63.86-3.09a4.74,4.74,0,0,1,1.8-.1,14.11,14.11,0,0,1,9.86,5.75,6,6,0,0,1,1.22,4.94c-.22,1-.19,2.1-.35,3.14A7.66,7.66,0,0,1,218.84,20,15.14,15.14,0,0,1,214,22.48a22.29,22.29,0,0,1-2.32.3,2.06,2.06,0,0,1-1.8-.85,1.27,1.27,0,0,1-.05-1.87,5.65,5.65,0,0,1,2.57-1.73c.67-.16,1.34-.35,2-.52A6.35,6.35,0,0,0,219,12.64a.71.71,0,0,0-.75-.84C217.17,11.82,216.13,11.88,214.57,12Z"/>
      <path d="M254.92,20.25a2.29,2.29,0,0,1-.16.65c-.28.62-.48,1.38-1.35,1.41a2,2,0,0,1-1.85-1.22,12.34,12.34,0,0,1-.52-1.48c-.43-1.05-.88-2.1-1.36-3.13a1.51,1.51,0,0,0-.67-.77,5.72,5.72,0,0,0-3.56.21c-.74.21-1,.85-1.2,1.58a12.55,12.55,0,0,1-1.93,4.28,1.67,1.67,0,0,1-1.31.73c-1,.08-1.55-.42-1.38-1.36a11.94,11.94,0,0,1,.51-2Q243,11.48,245.8,3.84a3.81,3.81,0,0,1,.33-.71,1.51,1.51,0,0,1,2.58.08,20.66,20.66,0,0,1,1,2.43c.46,1.32.89,2.66,1.3,4a33.91,33.91,0,0,0,3,7.26A5.78,5.78,0,0,1,254.92,20.25Zm-6.35-8.79a3.85,3.85,0,0,0-.62-2,.56.56,0,0,0-.87,0,3.93,3.93,0,0,0-.6,2.23.79.79,0,0,0,.86.77A1.15,1.15,0,0,0,248.57,11.46Z"/>
      <path d="M241.87,4.38a5.37,5.37,0,0,1-4.25,1.37,8.89,8.89,0,0,0-1-.06c-.89,0-1.3.34-1.43,1.19a23.41,23.41,0,0,0-.29,2.88c0,2.46,0,4.91,0,7.37,0,.87-.06,1.75-.13,2.63a1.61,1.61,0,0,1-.6,1.13.93.93,0,0,1-1.18.14,2.54,2.54,0,0,1-1.23-1.63,13.69,13.69,0,0,1-.37-2.6c.06-2.81-.2-5.62.11-8.43.27-2.37-.55-3.22-3-3a27.69,27.69,0,0,1-3.88-.25,1.72,1.72,0,0,1-.74-.22A1.07,1.07,0,0,1,223.4,4a.8.8,0,0,1,.43-.88,10.51,10.51,0,0,1,2.25-.59A84,84,0,0,1,236.72,2a22.74,22.74,0,0,1,2.31.28A3.31,3.31,0,0,1,241.87,4.38Z"/>
      <path d="M190.63.05h3.3a2,2,0,0,1,1.39.55.88.88,0,0,1-.19,1.46,5.78,5.78,0,0,1-2.12.55c-1.17.07-2.34.22-3.51.18-2.72-.09-4.39,1.29-5.39,3.68a12.41,12.41,0,0,0-.72,2.29c-.17.88.4,1.38,1.29,1.25s1.59-.3,2.39-.4a8.39,8.39,0,0,1,4.68.81,4.6,4.6,0,0,1,2.49,3.4,4.53,4.53,0,0,1-.69,3.8c-1.47,2-3,3.95-5.46,4.95a9.29,9.29,0,0,1-5.14.77,4,4,0,0,1-3-2,1.54,1.54,0,0,1,1.43-2.42c.59,0,1.16.18,1.74.24.88.1,1.75.23,2.63.26a4.28,4.28,0,0,0,4.37-3.3,2.47,2.47,0,0,0-1.23-3,5.74,5.74,0,0,0-4.23-.71,12.85,12.85,0,0,1-1.93.36,6.81,6.81,0,0,1-2-.2,2.15,2.15,0,0,1-1.9-2.33,13.27,13.27,0,0,1,.91-4.94c.16-.48.43-.93.62-1.4A5.3,5.3,0,0,1,183.9.84,19.19,19.19,0,0,1,190.63.05Z"/>
      <path d="M161.13,18.77a25.92,25.92,0,0,0,6.88.68,3.12,3.12,0,0,1,2.28.56.63.63,0,0,1,0,1.09,6.36,6.36,0,0,1-1,.5A17.94,17.94,0,0,1,162.2,23c-1.25,0-2.5-.09-3.74-.15a5.74,5.74,0,0,1-1.31-.17c-1.63-.48-2.1-1.54-1.34-3a11.16,11.16,0,0,1,1.86-2.45,31.36,31.36,0,0,1,4.25-3.82,11.39,11.39,0,0,0,3.39-4.8,4.34,4.34,0,0,0-.71-4.37,1.71,1.71,0,0,0-1.29-.76c-1.25-.12-2.5-.12-3.41,1a3.44,3.44,0,0,1-1.35,1.1,1.17,1.17,0,0,1-1.39-.33A1,1,0,0,1,157.09,4a5.37,5.37,0,0,1,2.5-2.39,11.58,11.58,0,0,1,5.18-.76A4.17,4.17,0,0,1,168.13,3a7,7,0,0,1,1,4.65,12,12,0,0,1-3.25,6.84C164.5,16,162.92,17.14,161.13,18.77Z"/>
      <path d="M173.62,18.82A2.09,2.09,0,0,1,176,21.05a6.56,6.56,0,0,1-2.7,5.24.67.67,0,0,1-.59,0,.58.58,0,0,1-.37-.71,10,10,0,0,1,.65-1.36,1.48,1.48,0,0,0-.11-1.64,7.93,7.93,0,0,1-.82-1.28A1.79,1.79,0,0,1,173.62,18.82Z"/>
    </g>
  </g>
</svg>
