<?xml version="1.0" standalone="no"?>
<!DOCTYPE svg PUBLIC "-//W3C//DTD SVG 20010904//EN"
 "http://www.w3.org/TR/2001/REC-SVG-20010904/DTD/svg10.dtd">
<svg version="1.0" xmlns="http://www.w3.org/2000/svg"
 width="250.000000pt" height="60.000000pt" viewBox="0 0 250.000000 60.000000"
 preserveAspectRatio="xMidYMid meet">

<g transform="translate(0.000000,60.000000) scale(0.100000,-0.100000)"
fill="#000000" stroke="none">
<path d="M26 533 c9 -16 59 -90 110 -167 l92 -138 66 98 66 99 0 -153 0 -152
50 0 50 0 0 220 0 220 -62 0 -63 0 -49 -75 c-28 -41 -53 -75 -57 -75 -3 0 -30
34 -58 75 l-52 75 -56 0 -55 0 18 -27z"/>
<path d="M600 340 l0 -220 34 0 c33 0 40 7 150 157 l116 157 0 -157 0 -157 40
0 40 0 0 220 0 220 -34 0 c-32 0 -39 -8 -147 -155 -62 -85 -117 -155 -121
-155 -4 0 -8 70 -8 155 l0 155 -35 0 -35 0 0 -220z"/>
<path d="M1197 453 c-10 -168 -50 -293 -94 -293 -22 0 -23 -3 -23 -65 0 -58 2
-65 19 -65 16 0 20 8 23 43 l3 42 175 0 175 0 3 -43 c3 -34 7 -42 23 -42 17 0
19 7 19 65 l0 65 -30 0 -30 0 0 200 0 200 -128 0 -129 0 -6 -107z m213 -118
l0 -175 -111 0 c-111 0 -111 0 -105 23 29 99 45 174 51 245 l7 82 79 0 79 0 0
-175z"/>
<path d="M1640 340 c0 -203 1 -220 18 -220 10 0 72 73 162 191 l145 190 3
-191 c2 -160 5 -190 17 -190 13 0 15 33 15 220 0 170 -3 220 -12 220 -7 -1
-78 -86 -158 -190 -79 -105 -148 -190 -152 -190 -4 0 -8 86 -8 190 0 162 -2
190 -15 190 -13 0 -15 -31 -15 -220z"/>
<path d="M2265 544 c-66 -34 -100 -82 -115 -162 -18 -100 25 -203 103 -244 54
-29 156 -31 205 -4 44 23 36 31 -8 9 -50 -24 -137 -22 -187 7 -130 72 -140
268 -20 364 47 38 139 48 201 22 51 -21 59 -20 16 4 -45 24 -152 27 -195 4z"/>
<path d="M46 223 c-61 -90 -60 -103 4 -103 l50 0 0 85 c0 47 -2 85 -4 85 -2 0
-25 -30 -50 -67z"/>
</g>
</svg>
